<svg viewBox="0 0 1080 1080" version="1.1" xmlns="http://www.w3.org/2000/svg" desc="Created with imagetracer.js version 1.2.6" ><path fill="rgb(0,0,0)" stroke="rgb(0,0,0)" stroke-width="1" opacity="0.9921568627450981" d="M 511.5 141 L 518.5 141 L 519.5 142 L 560.5 142 L 561.5 141 L 568.5 141 L 568.5 142 L 562.5 142 L 562 142.5 L 562.5 143 L 574.5 143 Q 575.5 141 579.5 142 L 579.5 143 L 576 143.5 L 576.5 144 L 584.5 144 Q 585.2 142.3 588.5 143 L 588.5 144 L 586 144.5 L 586.5 145 L 592.5 145 Q 593.3 143.3 596.5 144 L 596.5 145 L 594 145.5 L 599.5 146 Q 600 144.5 602.5 145 L 602.5 146 L 601 146.5 L 605.5 147 Q 606.3 145.3 609.5 146 L 609.5 147 L 607 147.5 L 611.5 148 Q 612 146.5 614.5 147 L 614.5 148 L 613 148.5 L 616.5 149 Q 617 147.5 619.5 148 L 619.5 149 L 618 149.5 L 621.5 150 Q 622 148.5 624.5 149 L 624.5 150 L 623 150.5 L 626.5 151 L 628.5 150 L 628.5 151 L 627 151.5 L 630.5 152 Q 631 150.5 633.5 151 L 633.5 152 L 632 152.5 L 634.5 153 Q 635 151.5 637.5 152 L 637.5 153 L 636 153.5 L 638.5 154 Q 639 152.5 641.5 153 L 641.5 154 L 640 154.5 L 642.5 155 L 644.5 154 L 644.5 156 L 648.5 155 L 648.5 156 L 647 156.5 L 649.5 157 L 651.5 156 L 651.5 158 L 655.5 157 L 655.5 158 L 654 158.5 L 656.5 159 L 658.5 158 L 658.5 159 L 657 159.5 L 659.5 160 L 661.5 159 L 661.5 161 L 664.5 160 L 664.5 162 L 667.5 161 L 667.5 163 L 670.5 162 L 670.5 164 L 673.5 163 L 673.5 165 L 676.5 164 L 676.5 165 L 675 165.5 L 677.5 166 Q 678.3 164.3 679 165.5 Q 677.3 166.2 678.5 167 L 681.5 166 L 681.5 168 L 684.5 167 L 684.5 168 L 683 168.5 L 685.5 169 Q 686.3 167.2 687 168.5 Q 685.2 169.2 686.5 170 L 689.5 169 L 689.5 171 L 691.5 170 L 691.5 172 L 694.5 171 L 694.5 172 L 693 172.5 L 695.5 173 Q 696.3 171.3 697 172.5 Q 695.3 173.3 696.5 174 L 698.5 173 L 698.5 175 L 701.5 174 L 704 175.5 Q 702.3 176.3 703.5 177 L 705.5 176 L 705.5 178 L 707.5 177 L 707.5 179 L 709.5 178 L 709.5 180 L 711.5 179 L 711.5 181 L 714.5 180 L 724 185.5 Q 722.3 186.3 723.5 187 L 725.5 186 L 725.5 188 L 727.5 187 L 727.5 189 L 729.5 188 L 729.5 190 L 731.5 189 L 735 191.5 Q 733.3 192.2 734.5 193 L 736.5 192 L 736.5 194 L 738.5 193 L 738.5 195 L 740.5 194 L 742 195.5 Q 740.3 196.2 741.5 197 L 743.5 196 L 743.5 198 L 745.5 197 L 747 198.5 Q 745.3 199.3 746.5 200 L 748.5 199 L 748.5 201 L 750.5 200 L 752 201.5 Q 750.3 202.2 751.5 203 L 753.5 202 L 755.5 205 Q 756.5 203 757.5 205 L 764.5 209 L 767 211.5 Q 765.3 212.3 766.5 213 L 768.5 212 L 770 213.5 Q 768.3 214.2 769.5 215 L 771.5 214 L 774.5 218 Q 775.8 215.7 777 218.5 Q 775.2 219.2 776.5 220 L 778.5 219 L 781 221.5 Q 779.3 222.3 780.5 223 L 782.5 222 L 786.5 227 L 787.5 226 L 791 229.5 L 791.5 231 L 792.5 230 L 796 233.5 Q 794.3 234.3 795.5 235 L 797.5 236 L 798.5 235 L 804 240.5 L 804.5 242 L 805.5 241 L 815 250.5 Q 812.8 251.8 815.5 253 L 816.5 253 L 820.5 257 L 821.5 256 L 824 258.5 L 823 259.5 L 827 263.5 L 828.5 266 L 829.5 265 L 839 274.5 Q 837.3 275.3 838.5 276 L 839.5 276 L 845 281.5 Q 843 282.5 845 283.5 L 845.5 285 L 846.5 284 L 850 287.5 Q 848.2 288.3 849.5 289 L 850.5 289 L 854 292.5 Q 852.2 293.3 853.5 294 L 854.5 294 L 858 297.5 L 857 299.5 Q 857.7 300.7 858.5 299 L 861 301.5 L 860 303.5 Q 860.7 304.7 861.5 303 L 863 304.5 Q 861.2 305.2 862.5 306 L 866 308.5 L 865 310.5 Q 865.7 311.7 866.5 310 L 868 311.5 Q 866.2 312.2 867.5 313 L 871 315.5 L 876 323.5 Q 874.2 324.3 875.5 325 L 878 326.5 L 877 328.5 Q 877.7 329.7 878.5 328 L 880 329.5 L 879 331.5 L 881 331.5 Q 879.2 332.2 880.5 333 L 883 334.5 L 882 336.5 L 884 336.5 L 883 338.5 Q 883.7 339.7 884.5 338 L 886 339.5 L 885 341.5 L 887 341.5 L 886 343.5 L 888 343.5 L 887 345.5 Q 887.7 346.7 888.5 345 L 890 346.5 L 891 348.5 L 890 350.5 L 892 350.5 L 891 352.5 L 893 352.5 L 892 354.5 L 894 354.5 L 893 356.5 Q 893.7 357.7 894.5 356 L 896 357.5 L 899 364.5 L 898 366.5 L 900 366.5 L 899 368.5 L 901 368.5 L 900 370.5 L 902 370.5 L 901 372.5 L 903 372.5 L 902 374.5 L 904 374.5 L 903 376.5 L 905 376.5 L 906 379.5 L 905 381.5 L 907 381.5 L 906 383.5 L 908 383.5 Q 906.5 384 907 386.5 L 908 386.5 L 908.5 385 L 909 386.5 L 908 388.5 L 910 388.5 L 909 390.5 L 911 390.5 L 910 393.5 L 912 393.5 Q 910.5 394 911 396.5 L 912 396.5 L 912.5 395 L 913 396.5 L 912 398.5 L 914 398.5 L 913 401.5 L 915 401.5 Q 913.5 402 914 404.5 L 915 404.5 L 915.5 403 L 916 404.5 L 915 406.5 L 917 406.5 L 916 409.5 L 918 409.5 L 917 412.5 L 919 412.5 L 918 415.5 L 920 415.5 L 919 418.5 L 921 418.5 L 920 422.5 L 921 422.5 L 921.5 421 L 922 422.5 Q 920.5 423 921 425.5 L 922 425.5 L 922.5 424 L 923 425.5 Q 921.5 426 922 428.5 L 924 428.5 L 923 432.5 L 924 432.5 L 924.5 431 L 925 432.5 Q 923.5 433 924 435.5 L 926 435.5 L 925 439.5 L 926 439.5 L 926.5 438 L 927 440.5 Q 925.5 441 926 443.5 L 927 443.5 L 927.5 442 L 928 444.5 Q 926.5 445 927 447.5 L 928 447.5 L 928.5 446 L 929 448.5 Q 927.3 449.3 928 452.5 L 929 452.5 L 929.5 451 L 930 452.5 Q 928.2 453.2 929 456.5 L 930 456.5 L 930.5 455 L 931 457.5 Q 929.3 458.3 930 461.5 L 931 461.5 L 931.5 460 L 932 462.5 Q 930.3 463.3 931 466.5 L 932 466.5 L 932.5 465 L 933 467.5 Q 931 468.5 932 472.5 L 933 472.5 L 933.5 471 L 934 473.5 Q 932 474.5 933 478.5 L 934 478.5 L 934.5 477 L 935 479.5 L 934 480.5 L 934 485.5 L 935 485.5 L 935.5 483 L 936 486.5 L 935 487.5 L 935 493.5 L 936 493.5 L 936.5 491 L 937 494.5 L 936 495.5 L 936 503.5 L 937 503.5 L 937.5 500 L 938 504.5 L 937 505.5 L 937 517.5 L 938 517.5 L 938 511.5 L 938.5 511 L 939 511.5 L 939 518.5 L 938 519.5 L 938 560.5 L 939 561.5 L 939 568.5 L 938 568.5 L 938 562.5 L 937.5 562 L 937 562.5 L 937 574.5 Q 939 575.5 938 579.5 L 937 579.5 L 936.5 576 L 936 576.5 L 936 584.5 Q 937.8 585.2 937 588.5 L 936 588.5 L 935.5 586 L 935 586.5 L 935 592.5 Q 936.8 593.3 936 596.5 L 935 596.5 L 934.5 594 L 934 599.5 Q 935.5 600 935 602.5 L 934 602.5 L 933.5 601 L 933 605.5 Q 934.5 606 934 608.5 L 933 608.5 L 932.5 607 L 932 611.5 Q 933.5 612 933 614.5 L 932 614.5 L 931.5 613 L 931 616.5 Q 932.5 617 932 619.5 L 931 619.5 L 930.5 618 L 930 621.5 Q 931.5 622 931 624.5 L 930 624.5 L 929.5 623 L 929 626.5 L 930 628.5 L 929 628.5 L 928.5 627 L 928 630.5 Q 929.5 631 929 633.5 L 928 633.5 L 927.5 632 L 927 634.5 Q 928.5 635 928 637.5 L 927 637.5 L 926.5 636 L 926 638.5 Q 927.5 639 927 641.5 L 926 641.5 L 925.5 640 L 925 642.5 L 926 644.5 L 924 644.5 L 925 648.5 L 924 648.5 L 923.5 647 L 923 649.5 L 924 651.5 L 922 651.5 L 923 655.5 L 922 655.5 L 921.5 654 L 921 656.5 L 922 658.5 L 921 658.5 L 920.5 657 L 920 659.5 L 921 661.5 L 919 661.5 L 920 664.5 L 918 664.5 L 919 667.5 L 917 667.5 L 918 670.5 L 916 670.5 L 917 673.5 L 915 673.5 L 916 676.5 L 915 676.5 L 914.5 675 L 914 677.5 Q 915.7 678.3 914.5 679 Q 913.7 677.3 913 678.5 L 914 681.5 L 912 681.5 L 913 684.5 L 912 684.5 L 911.5 683 L 911 685.5 Q 912.8 686.3 911.5 687 Q 910.8 685.2 910 686.5 L 911 689.5 L 909 689.5 L 910 691.5 L 908 691.5 L 909 694.5 L 908 694.5 L 907.5 693 L 907 695.5 Q 908.8 696.3 907.5 697 Q 906.7 695.3 906 696.5 L 907 698.5 L 905 698.5 L 906 701.5 L 904.5 704 Q 903.8 702.3 903 703.5 L 904 705.5 L 902 705.5 L 903 707.5 L 901 707.5 L 902 709.5 L 900 709.5 L 901 711.5 L 899 711.5 L 900 713.5 L 898 713.5 L 899 716.5 L 894.5 724 Q 893.8 722.3 893 723.5 L 894 725.5 L 892 725.5 L 893 727.5 L 891 727.5 L 892 729.5 L 890 729.5 L 891 731.5 L 888.5 735 Q 887.7 733.3 887 734.5 L 888 736.5 L 886 736.5 L 887 738.5 L 885 738.5 L 886 740.5 L 884.5 742 Q 883.8 740.3 883 741.5 L 884 743.5 L 882 743.5 L 883 745.5 L 880 747.5 Q 881.8 748.2 880.5 749 Q 879.7 747.3 879 748.5 L 880 750.5 L 878.5 752 Q 877.7 750.3 877 751.5 L 878 753.5 L 875 755.5 Q 877 756.5 875 757.5 L 871 764.5 L 868.5 767 L 867 767.5 Q 869.3 768.8 866.5 770 Q 865.8 768.3 865 769.5 L 866 771.5 L 862 774.5 Q 864.3 775.8 861.5 777 Q 860.7 775.2 860 776.5 L 861 778.5 L 858.5 781 Q 857.8 779.3 857 780.5 L 858 782.5 L 853 786.5 L 854 787.5 L 850.5 791 L 849 791.5 L 850 792.5 L 846.5 796 Q 845.8 794.3 845 795.5 L 844 797.5 L 845 798.5 L 839.5 804 L 838 804.5 L 839 805.5 L 829.5 815 Q 828.2 812.8 827 815.5 L 827 816.5 L 823 820.5 L 824 821.5 L 821.5 824 L 820.5 823 L 816.5 827 L 814 828.5 L 815 829.5 L 805.5 839 Q 804.8 837.3 804 838.5 L 804 839.5 L 798.5 845 Q 797.5 843 796.5 845 L 795 845.5 L 796 846.5 L 792.5 850 Q 791.8 848.2 791 849.5 L 791 850.5 L 787.5 854 Q 786.8 852.2 786 853.5 L 786 854.5 L 782.5 858 L 780.5 857 Q 779.2 857.7 781 858.5 L 778.5 861 L 776.5 860 Q 775.2 860.7 777 861.5 L 775.5 863 Q 774.7 861.2 774 862.5 L 771.5 866 L 769.5 865 Q 768.2 865.7 770 866.5 L 768.5 868 L 766.5 867 Q 765.2 867.7 767 868.5 L 764.5 871 L 756.5 876 Q 755.8 874.2 755 875.5 L 753.5 878 L 751.5 877 Q 750.2 877.7 752 878.5 L 750.5 880 L 748.5 879 L 748.5 881 L 746.5 880 Q 745.2 880.7 747 881.5 L 745.5 883 L 743.5 882 L 743.5 884 L 741.5 883 Q 740.2 883.7 742 884.5 L 740.5 886 L 738.5 885 L 738.5 887 L 736.5 886 L 736.5 888 L 734.5 887 Q 733.2 887.7 735 888.5 L 733.5 890 L 731.5 891 L 729.5 890 L 729.5 892 L 727.5 891 L 727.5 893 L 725.5 892 L 725.5 894 L 723.5 893 Q 722.2 893.7 724 894.5 L 722.5 896 L 713.5 900 L 711.5 899 L 711.5 901 L 709.5 900 L 709.5 902 L 707.5 901 L 707.5 903 L 705.5 902 L 705.5 904 L 703.5 903 L 703.5 905 L 700.5 906 L 698.5 905 L 698.5 907 L 696.5 906 L 696.5 908 Q 696 906.5 693.5 907 L 693.5 908 L 695 908.5 L 693.5 909 L 691.5 908 L 691.5 910 L 689.5 909 L 689.5 911 L 686.5 910 L 686.5 912 Q 686 910.5 683.5 911 L 683.5 912 L 685 912.5 L 683.5 913 L 681.5 912 L 681.5 914 L 678.5 913 L 678.5 915 Q 678 913.5 675.5 914 L 675.5 915 L 677 915.5 L 675.5 916 L 673.5 915 L 673.5 917 L 670.5 916 L 670.5 918 L 667.5 917 L 667.5 919 L 664.5 918 L 664.5 920 L 661.5 919 L 661.5 921 L 657.5 920 L 657.5 921 L 659 921.5 L 657.5 922 Q 657 920.5 654.5 921 L 654.5 922 L 656 922.5 L 654.5 923 Q 654 921.5 651.5 922 L 651.5 924 L 647.5 923 L 647.5 924 L 649 924.5 L 647.5 925 Q 647 923.5 644.5 924 L 644.5 926 L 640.5 925 L 640.5 926 L 642 926.5 L 639.5 927 Q 639 925.5 636.5 926 L 636.5 927 L 638 927.5 L 635.5 928 Q 635 926.5 632.5 927 L 632.5 928 L 634 928.5 L 631.5 929 Q 630.8 927.3 627.5 928 L 627.5 929 L 629 929.5 L 627.5 930 Q 626.8 928.2 623.5 929 L 623.5 930 L 625 930.5 L 622.5 931 Q 621.8 929.3 618.5 930 L 618.5 931 L 620 931.5 L 617.5 932 Q 616.8 930.3 613.5 931 L 613.5 932 L 615 932.5 L 612.5 933 Q 611.5 931 607.5 932 L 607.5 933 L 610 933.5 L 606.5 934 Q 605.5 932 601.5 933 L 601.5 934 L 603 934.5 L 600.5 935 L 599.5 934 L 594.5 934 L 594.5 935 L 597 935.5 L 593.5 936 L 592.5 935 L 586.5 935 L 586.5 936 L 589 936.5 L 585.5 937 L 584.5 936 L 576.5 936 L 576.5 937 L 580 937.5 L 575.5 938 L 574.5 937 L 562.5 937 L 562.5 938 L 568.5 938 L 569 938.5 L 568.5 939 L 561.5 939 L 560.5 938 L 519.5 938 L 518.5 939 L 511.5 939 L 511.5 938 L 517.5 938 L 518 937.5 L 517.5 937 L 505.5 937 Q 504.5 939 500.5 938 L 500.5 937 L 504 936.5 L 503.5 936 L 495.5 936 Q 494.8 937.8 491.5 937 L 491.5 936 L 494 935.5 L 493.5 935 L 487.5 935 Q 486.8 936.8 483.5 936 L 483.5 935 L 486 934.5 L 480.5 934 Q 480 935.5 477.5 935 L 477.5 934 L 479 933.5 L 474.5 933 Q 473.7 934.7 470.5 934 L 470.5 933 L 473 932.5 L 468.5 932 Q 468 933.5 465.5 933 L 465.5 932 L 467 931.5 L 463.5 931 Q 463 932.5 460.5 932 L 460.5 931 L 462 930.5 L 458.5 930 Q 458 931.5 455.5 931 L 455.5 930 L 457 929.5 L 453.5 929 L 451.5 930 L 451.5 929 L 453 928.5 L 449.5 928 Q 449 929.5 446.5 929 L 446.5 928 L 448 927.5 L 445.5 927 Q 445 928.5 442.5 928 L 442.5 927 L 444 926.5 L 441.5 926 Q 441 927.5 438.5 927 L 438.5 926 L 440 925.5 L 437.5 925 L 435.5 926 L 435.5 924 L 431.5 925 L 431.5 924 L 433 923.5 L 430.5 923 L 428.5 924 L 428.5 922 L 424.5 923 L 424.5 922 L 426 921.5 L 423.5 921 L 421.5 922 L 421.5 921 L 423 920.5 L 420.5 920 L 418.5 921 L 418.5 919 L 415.5 920 L 415.5 918 L 412.5 919 L 412.5 917 L 409.5 918 L 409.5 916 L 406.5 917 L 406.5 915 L 403.5 916 L 403.5 915 L 405 914.5 L 402.5 914 Q 401.8 915.7 401 914.5 Q 402.8 913.7 401.5 913 L 398.5 914 L 398.5 912 L 395.5 913 L 395.5 912 L 397 911.5 L 394.5 911 Q 393.8 912.8 393 911.5 Q 394.7 910.8 393.5 910 L 390.5 911 L 390.5 909 L 388.5 910 L 388.5 908 L 385.5 909 L 385.5 908 L 387 907.5 L 384.5 907 Q 383.8 908.8 383 907.5 Q 384.8 906.7 383.5 906 L 381.5 907 L 381.5 905 L 378.5 906 L 376 904.5 Q 377.8 903.8 376.5 903 L 374.5 904 L 374.5 902 L 372.5 903 L 372.5 901 L 370.5 902 L 370.5 900 L 368.5 901 L 368.5 899 L 365.5 900 L 356 894.5 Q 357.8 893.8 356.5 893 L 354.5 894 L 354.5 892 L 352.5 893 L 352.5 891 L 350.5 892 L 350.5 890 L 348.5 891 L 345 888.5 Q 346.8 887.7 345.5 887 L 343.5 888 L 343.5 886 L 341.5 887 L 341.5 885 L 339.5 886 L 338 884.5 Q 339.8 883.8 338.5 883 L 336.5 884 L 336.5 882 L 334.5 883 L 333 881.5 Q 334.8 880.8 333.5 880 L 331.5 881 L 331.5 879 L 329.5 880 L 328 878.5 Q 329.7 877.7 328.5 877 L 326.5 878 L 324.5 875 Q 323.5 877 322.5 875 L 315.5 871 L 313 868.5 Q 314.8 867.8 313.5 867 L 311.5 868 L 310 866.5 Q 311.7 865.8 310.5 865 L 308.5 866 L 305.5 862 Q 304.3 864.3 303 861.5 Q 304.8 860.7 303.5 860 L 301.5 861 L 299 858.5 Q 300.7 857.8 299.5 857 L 297.5 858 L 293.5 853 L 292.5 854 L 289 850.5 L 288.5 849 L 287.5 850 L 284 846.5 Q 285.8 845.8 284.5 845 L 282.5 844 L 281.5 845 L 276 839.5 L 275.5 838 L 274.5 839 L 265 829.5 Q 267.3 828.2 264.5 827 L 263.5 827 L 259.5 823 L 258.5 824 L 256 821.5 L 257 820.5 L 253 816.5 L 251.5 814 L 250.5 815 L 241 805.5 Q 242.7 804.8 241.5 804 L 240.5 804 L 235 798.5 Q 237 797.5 235 796.5 L 234.5 795 L 233.5 796 L 230 792.5 Q 231.7 791.8 230.5 791 L 229.5 791 L 226 787.5 Q 227.8 786.8 226.5 786 L 225.5 786 L 222 782.5 L 223 780.5 Q 222.2 779.2 221.5 781 L 219 778.5 L 220 776.5 Q 219.2 775.2 218.5 777 L 217 775.5 Q 218.8 774.7 217.5 774 L 214 771.5 L 215 769.5 Q 214.2 768.2 213.5 770 L 212 768.5 Q 213.7 767.8 212.5 767 L 209 764.5 L 204 756.5 Q 205.7 755.8 204.5 755 L 202 753.5 L 203 751.5 Q 202.2 750.2 201.5 752 L 200 750.5 L 201 748.5 L 199 748.5 Q 200.8 747.7 199.5 747 L 197 745.5 L 198 743.5 L 196 743.5 L 197 741.5 Q 196.2 740.2 195.5 742 L 194 740.5 L 195 738.5 L 193 738.5 L 194 736.5 L 192 736.5 L 193 734.5 Q 192.2 733.2 191.5 735 L 190 733.5 L 189 731.5 L 190 729.5 L 188 729.5 L 189 727.5 L 187 727.5 L 188 725.5 L 186 725.5 L 187 723.5 Q 186.2 722.2 185.5 724 L 184 722.5 L 181 715.5 L 182 713.5 L 180 713.5 L 181 711.5 L 179 711.5 L 180 709.5 L 178 709.5 L 179 707.5 L 177 707.5 L 178 705.5 L 176 705.5 L 177 703.5 L 175 703.5 L 174 700.5 L 175 698.5 L 173 698.5 L 174 696.5 L 172 696.5 Q 173.5 696 173 693.5 L 172 693.5 L 171.5 695 L 171 693.5 L 172 691.5 L 170 691.5 L 171 689.5 L 169 689.5 L 170 686.5 L 168 686.5 Q 169.5 686 169 683.5 L 168 683.5 L 167.5 685 L 167 683.5 L 168 681.5 L 166 681.5 L 167 678.5 L 165 678.5 Q 166.5 678 166 675.5 L 165 675.5 L 164.5 677 L 164 675.5 L 165 673.5 L 163 673.5 L 164 670.5 L 162 670.5 L 163 667.5 L 161 667.5 L 162 664.5 L 160 664.5 L 161 661.5 L 159 661.5 L 160 657.5 L 159 657.5 L 158.5 659 L 158 657.5 Q 159.5 657 159 654.5 L 158 654.5 L 157.5 656 L 157 654.5 Q 158.5 654 158 651.5 L 156 651.5 L 157 647.5 L 156 647.5 L 155.5 649 L 155 647.5 Q 156.5 647 156 644.5 L 154 644.5 L 155 640.5 L 154 640.5 L 153.5 642 L 153 639.5 Q 154.5 639 154 636.5 L 153 636.5 L 152.5 638 L 152 635.5 Q 153.5 635 153 632.5 L 152 632.5 L 151.5 634 L 151 631.5 Q 152.8 630.8 152 627.5 L 151 627.5 L 150.5 629 L 150 627.5 Q 151.8 626.8 151 623.5 L 150 623.5 L 149.5 625 L 149 622.5 Q 150.8 621.8 150 618.5 L 149 618.5 L 148.5 620 L 148 617.5 Q 149.8 616.8 149 613.5 L 148 613.5 L 147.5 615 L 147 612.5 Q 149 611.5 148 607.5 L 147 607.5 L 146.5 609 L 146 606.5 Q 148 605.5 147 601.5 L 146 601.5 L 145.5 603 L 145 600.5 L 146 599.5 L 146 594.5 L 145 594.5 L 144.5 597 L 144 593.5 L 145 592.5 L 145 586.5 L 144 586.5 L 143.5 589 L 143 585.5 L 144 584.5 L 144 576.5 L 143 576.5 L 142.5 580 L 142 575.5 L 143 574.5 L 143 562.5 L 142 562.5 L 142 568.5 L 141.5 569 L 141 568.5 L 141 561.5 L 142 560.5 L 142 519.5 L 141 518.5 L 141 511.5 L 142 511.5 L 142 517.5 L 142.5 518 L 143 517.5 L 143 505.5 Q 141 504.5 142 500.5 L 143 500.5 L 143.5 504 L 144 503.5 L 144 495.5 Q 142.3 494.8 143 491.5 L 144 491.5 L 144.5 494 L 145 493.5 L 145 487.5 Q 143.3 486.8 144 483.5 L 145 483.5 L 145.5 486 L 146 480.5 Q 144.5 480 145 477.5 L 146 477.5 L 146.5 479 L 147 474.5 Q 145.5 474 146 471.5 L 147 471.5 L 147.5 473 L 148 468.5 Q 146.5 468 147 465.5 L 148 465.5 L 148.5 467 L 149 463.5 Q 147.5 463 148 460.5 L 149 460.5 L 149.5 462 L 150 458.5 Q 148.5 458 149 455.5 L 150 455.5 L 150.5 457 L 151 453.5 L 150 451.5 L 151 451.5 L 151.5 453 L 152 449.5 Q 150.5 449 151 446.5 L 152 446.5 L 152.5 448 L 153 445.5 Q 151.5 445 152 442.5 L 153 442.5 L 153.5 444 L 154 441.5 Q 152.5 441 153 438.5 L 154 438.5 L 154.5 440 L 155 437.5 L 154 435.5 L 156 435.5 L 155 431.5 L 156 431.5 L 156.5 433 L 157 430.5 L 156 428.5 L 158 428.5 L 157 424.5 L 158 424.5 L 158.5 426 L 159 423.5 L 158 421.5 L 159 421.5 L 159.5 423 L 160 420.5 L 159 418.5 L 161 418.5 L 160 415.5 L 162 415.5 L 161 412.5 L 163 412.5 L 162 409.5 L 164 409.5 L 163 406.5 L 165 406.5 L 164 403.5 L 165 403.5 L 165.5 405 L 166 402.5 Q 164.3 401.8 165.5 401 Q 166.2 402.8 167 401.5 L 166 398.5 L 168 398.5 L 167 395.5 L 168 395.5 L 168.5 397 L 169 394.5 Q 167.2 393.8 168.5 393 Q 169.2 394.7 170 393.5 L 169 390.5 L 171 390.5 L 170 388.5 L 172 388.5 L 171 385.5 L 172 385.5 L 172.5 387 L 173 384.5 Q 171.3 383.8 172.5 383 Q 173.3 384.8 174 383.5 L 173 381.5 L 175 381.5 L 174 378.5 L 175.5 376 Q 176.3 377.8 177 376.5 L 176 374.5 L 178 374.5 L 177 372.5 L 179 372.5 L 178 370.5 L 180 370.5 L 179 368.5 L 181 368.5 L 180 366.5 L 182 366.5 L 181 363.5 L 185.5 356 Q 186.3 357.8 187 356.5 L 186 354.5 L 188 354.5 L 187 352.5 L 189 352.5 L 188 350.5 L 190 350.5 L 189 348.5 L 191.5 345 Q 192.2 346.8 193 345.5 L 192 343.5 L 194 343.5 L 193 341.5 L 195 341.5 L 194 339.5 L 195.5 338 Q 196.2 339.8 197 338.5 L 196 336.5 L 198 336.5 L 197 334.5 L 200 332.5 Q 198.3 331.7 199.5 331 Q 200.3 332.8 201 331.5 L 200 329.5 L 201.5 328 Q 202.2 329.7 203 328.5 L 202 326.5 L 205 324.5 Q 203 323.5 205 322.5 L 209 315.5 L 211.5 313 L 213 312.5 Q 210.8 311.2 213.5 310 Q 214.2 311.7 215 310.5 L 214 308.5 L 218 305.5 Q 215.7 304.3 218.5 303 Q 219.2 304.8 220 303.5 L 219 301.5 L 221.5 299 Q 222.3 300.7 223 299.5 L 222 297.5 L 227 293.5 L 226 292.5 L 229.5 289 L 231 288.5 L 230 287.5 L 233.5 284 Q 234.3 285.8 235 284.5 L 236 282.5 L 235 281.5 L 240.5 276 L 242 275.5 L 241 274.5 L 250.5 265 Q 251.8 267.3 253 264.5 L 253 263.5 L 257 259.5 L 256 258.5 L 258.5 256 L 259.5 257 L 263.5 253 L 266 251.5 L 265 250.5 L 274.5 241 Q 275.3 242.7 276 241.5 L 276 240.5 L 281.5 235 Q 282.5 237 283.5 235 L 285 234.5 L 284 233.5 L 287.5 230 Q 288.3 231.7 289 230.5 L 289 229.5 L 292.5 226 Q 293.3 227.8 294 226.5 L 294 225.5 L 297.5 222 L 299.5 223 Q 300.7 222.2 299 221.5 L 301.5 219 L 303.5 220 Q 304.7 219.2 303 218.5 L 304.5 217 Q 305.2 218.8 306 217.5 L 308.5 214 L 310.5 215 Q 311.7 214.2 310 213.5 L 311.5 212 L 313.5 213 Q 314.7 212.2 313 211.5 L 315.5 209 L 323.5 204 Q 324.3 205.7 325 204.5 L 326.5 202 L 328.5 203 Q 329.7 202.2 328 201.5 L 329.5 200 L 331.5 201 L 331.5 199 L 333.5 200 Q 334.7 199.2 333 198.5 L 334.5 197 L 336.5 198 L 336.5 196 L 338.5 197 Q 339.7 196.2 338 195.5 L 339.5 194 L 341.5 195 L 341.5 193 L 343.5 194 L 343.5 192 L 345.5 193 Q 346.7 192.2 345 191.5 L 346.5 190 L 348.5 189 L 350.5 190 L 350.5 188 L 352.5 189 L 352.5 187 L 354.5 188 L 354.5 186 L 356.5 187 Q 357.7 186.2 356 185.5 L 357.5 184 L 366.5 180 L 368.5 181 L 368.5 179 L 370.5 180 L 370.5 178 L 372.5 179 L 372.5 177 L 374.5 178 L 374.5 176 L 376.5 177 L 376.5 175 L 379.5 174 L 381.5 175 L 381.5 173 L 383.5 174 L 383.5 172 Q 384 173.5 386.5 173 L 386.5 172 L 385 171.5 L 386.5 171 L 388.5 172 L 388.5 170 L 390.5 171 L 390.5 169 L 393.5 170 L 393.5 168 Q 394 169.5 396.5 169 L 396.5 168 L 395 167.5 L 396.5 167 L 398.5 168 L 398.5 166 L 401.5 167 L 401.5 165 Q 402 166.5 404.5 166 L 404.5 165 L 403 164.5 L 404.5 164 L 406.5 165 L 406.5 163 L 409.5 164 L 409.5 162 L 412.5 163 L 412.5 161 L 415.5 162 L 415.5 160 L 418.5 161 L 418.5 159 L 422.5 160 L 422.5 159 L 421 158.5 L 422.5 158 Q 423 159.5 425.5 159 L 425.5 158 L 424 157.5 L 425.5 157 Q 426 158.5 428.5 158 L 428.5 156 L 432.5 157 L 432.5 156 L 431 155.5 L 432.5 155 Q 433 156.5 435.5 156 L 435.5 154 L 439.5 155 L 439.5 154 L 438 153.5 L 440.5 153 Q 441 154.5 443.5 154 L 443.5 153 L 442 152.5 L 444.5 152 Q 445 153.5 447.5 153 L 447.5 152 L 446 151.5 L 448.5 151 Q 449.3 152.8 452.5 152 L 452.5 151 L 451 150.5 L 452.5 150 Q 453.2 151.8 456.5 151 L 456.5 150 L 455 149.5 L 457.5 149 Q 458.3 150.8 461.5 150 L 461.5 149 L 460 148.5 L 462.5 148 Q 463.3 149.8 466.5 149 L 466.5 148 L 465 147.5 L 467.5 147 Q 468.5 149 472.5 148 L 472.5 147 L 470 146.5 L 473.5 146 Q 474.5 148 478.5 147 L 478.5 146 L 477 145.5 L 479.5 145 L 480.5 146 L 485.5 146 L 485.5 145 L 483 144.5 L 486.5 144 L 487.5 145 L 493.5 145 L 493.5 144 L 491 143.5 L 494.5 143 L 495.5 144 L 503.5 144 L 503.5 143 L 500 142.5 L 504.5 142 L 505.5 143 L 517.5 143 L 517.5 142 L 511.5 142 L 511.5 141 Z M 540 273 L 539 276 L 539 634 L 538 635 L 538 641 Q 536 641 537 645 L 536 646 L 536 649 L 533 655 L 533 657 L 526 669 L 518 678 L 518 679 L 503 691 L 489 698 L 484 699 L 483 700 L 480 700 L 479 701 L 476 701 L 475 702 L 470 702 L 469 703 L 451 703 L 450 702 L 445 702 Q 444 700 441 701 L 434 698 L 432 698 L 420 692 L 414 688 Q 408 685 406 679 Q 407 676 405 676 L 405 673 L 404 672 L 404 669 L 403 668 L 403 662 L 402 661 L 402 645 L 403 644 L 403 639 Q 405 637 404 634 L 407 627 L 407 625 L 413 613 L 418 606 L 431 593 L 447 583 L 449 583 L 452 581 L 457 580 L 458 579 Q 461 580 462 578 L 466 578 L 467 577 L 489 577 L 490 575 L 490 501 L 489 498 L 487 497 L 471 497 L 471 474 L 470 472 Q 467 473 467 471 L 449 471 L 448 472 L 439 472 L 438 473 L 432 473 L 431 474 L 427 474 L 426 475 L 419 476 L 415 478 L 412 478 L 408 480 L 406 480 L 396 485 L 394 485 L 386 489 L 384 491 L 379 493 L 362 505 L 356 511 L 355 511 L 344 522 L 344 523 L 334 534 L 326 546 L 325 549 L 323 551 L 316 565 L 316 567 L 313 573 L 313 575 L 311 578 L 311 581 L 309 585 L 308 592 L 307 593 L 307 596 L 306 597 L 306 602 L 305 603 L 305 610 L 304 611 L 304 644 L 305 645 L 305 652 L 306 653 L 306 657 L 307 658 L 307 662 Q 309 662 308 666 L 309 667 L 309 670 L 312 677 L 312 679 L 313 680 L 313 682 L 314 683 L 314 685 L 326 709 L 359 754 L 383 776 L 399 787 L 404 789 L 406 791 L 412 794 L 414 794 L 419 797 L 421 797 L 424 799 L 432 801 L 433 802 L 435 802 L 436 803 L 443 804 L 444 805 L 447 805 L 448 806 L 453 806 L 454 807 L 460 807 L 461 808 L 472 808 L 473 809 L 485 809 L 486 808 L 497 808 L 498 807 L 504 807 L 505 806 L 514 805 L 515 804 L 518 804 L 522 802 L 525 802 L 529 800 L 531 800 L 539 796 L 541 796 L 560 786 L 572 778 L 583 768 L 584 768 L 599 752 L 613 732 L 624 709 L 626 701 L 627 700 L 627 698 L 628 697 L 628 695 L 629 694 L 630 687 L 631 686 L 631 681 L 632 680 L 632 675 L 633 674 L 633 666 L 634 665 L 634 453 L 635 452 L 638 458 L 659 478 L 680 492 L 688 496 L 690 496 L 695 499 L 703 501 L 704 502 L 706 502 L 707 503 L 709 503 L 710 504 Q 713 503 714 505 L 718 505 L 719 506 L 724 506 L 725 507 L 731 507 L 732 508 L 756 508 L 758 507 L 759 506 L 759 421 L 758 419 L 753 419 L 752 418 L 746 418 L 745 417 L 741 417 L 741 397 L 740 395 L 739 393 L 734 393 L 733 392 L 727 392 Q 726 390 722 391 L 721 390 L 717 390 L 713 388 L 710 388 L 706 386 L 704 386 L 701 384 L 699 384 L 694 381 L 692 381 L 686 378 L 679 373 L 676 372 L 665 363 L 664 363 L 650 350 L 644 338 L 644 336 L 642 333 L 641 328 L 640 327 L 640 324 Q 639 323 639 321 L 638 320 L 638 316 Q 636 314 637 311 L 636 310 L 636 305 Q 634 304 635 301 L 634 299 L 623 299 L 621 298 L 620 294 L 619 293 L 618 284 L 617 283 L 617 277 L 616 275 L 615 273 L 540 273 Z " /><path fill="rgb(6,5,6)" stroke="rgb(6,5,6)" stroke-width="1" opacity="1" d="M 540 273 L 542.5 274 L 613.5 274 Q 614.8 271.8 616 274.5 L 615 275.5 L 614.5 280 L 614 275 L 542.5 275 L 542 275.5 L 542 500.5 L 541 501.5 L 541 637.5 L 540 638.5 L 540 643.5 Q 538.2 644.3 539 647.5 L 538 648.5 L 537 653.5 L 535 656.5 L 535 658.5 L 533 662.5 L 525 674.5 L 511.5 688 L 504.5 693 L 499.5 695 L 497.5 697 L 493.5 698 L 490.5 700 L 482.5 702 L 481.5 703 L 478.5 703 L 477.5 704 Q 474.3 703.3 473.5 705 L 466.5 705 L 465.5 706 L 453.5 706 L 452.5 705 L 445.5 705 L 444.5 704 L 437.5 703 L 436.5 702 L 431.5 701 L 428.5 699 L 426.5 699 L 414.5 692 L 407 685.5 Q 407.7 684.2 408.5 686 L 410 685.5 L 408 683.5 L 408.5 683 L 413 687.5 Q 411.2 688.2 412.5 689 L 414.5 688 L 419 691.5 Q 417.2 692.2 418.5 693 L 420.5 692 L 431 697.5 Q 429.2 698.3 430.5 699 L 433.5 698 L 437 699.5 L 435 700.5 L 437.5 701 L 439.5 700 L 439.5 701 L 438 701.5 L 440.5 702 Q 441 700.5 443.5 701 L 443.5 703 L 446.5 703 Q 447 701.5 449.5 702 L 449.5 703 L 448 703.5 L 448.5 704 L 456.5 704 Q 457.5 702 461.5 703 L 462.5 704 L 470.5 704 L 470.5 703 L 469 702.5 L 472.5 702 Q 473 703.5 475.5 703 L 475.5 701 L 480.5 702 L 480.5 701 L 479 700.5 L 481.5 700 L 483.5 701 L 483.5 699 L 486.5 700 L 486.5 698 L 489.5 699 L 489.5 697 L 491.5 698 L 491.5 696 L 501.5 691 L 503.5 692 Q 504.7 691.2 503 690.5 L 504.5 689 L 506.5 690 Q 507.7 689.2 506 688.5 L 508.5 686 L 509.5 686 L 517.5 679 L 518.5 680 L 521 677.5 L 520.5 676 L 518.5 678 L 518 677.5 L 523 672.5 L 529.5 663 Q 530.2 664.8 531 663.5 L 530 661.5 L 532 661.5 L 531 659.5 L 533 659.5 L 532 657.5 L 534 657.5 L 533 654.5 L 534 654.5 L 534.5 656 L 535 653.5 Q 533.3 652.7 534.5 652 Q 535.3 653.7 536 652.5 L 535 649.5 L 537 649.5 L 536 645.5 L 537 645.5 L 537.5 647 L 538 643.5 L 537 641.5 L 538 641.5 L 538.5 643 L 539 638.5 Q 537.3 637.8 538 634.5 L 539 634.5 L 539.5 636 L 540 635.5 L 540 499.5 L 539 498.5 L 539 275.5 L 540 273 Z M 541 275 L 540 276 L 540 384 L 541 384 L 541 276 L 541 275 Z " /><path fill="rgb(6,5,6)" stroke="rgb(6,5,6)" stroke-width="1" opacity="1" d="M 632.5 299 L 635 300.5 L 633.5 306 L 633 301 L 619.5 301 L 619 300.5 L 619.5 300 L 631.5 300 L 632.5 299 Z " /><path fill="rgb(6,5,6)" stroke="rgb(6,5,6)" stroke-width="1" opacity="1" d="M 638.5 320 L 639 321.5 Q 637.5 322 638 324.5 L 639 324.5 L 639.5 323 L 640 324.5 Q 638.5 325 639 327.5 L 641 327.5 L 640 330.5 L 642 330.5 L 641 333.5 L 643 333.5 L 641.5 336 L 640 333.5 L 640 331.5 L 639 330.5 L 637 322.5 L 638.5 320 Z " /><path fill="rgb(6,5,6)" stroke="rgb(6,5,6)" stroke-width="1" opacity="1" d="M 643.5 335 L 644 336.5 L 643 338.5 L 645 338.5 L 644 340.5 L 646 340.5 L 650 348.5 L 649 350.5 Q 649.7 351.7 650.5 350 L 663.5 363 L 664.5 363 L 672 369.5 Q 670.3 370.2 671.5 371 L 673.5 370 L 675 371.5 Q 673.3 372.3 674.5 373 L 676.5 372 L 685 377.5 Q 683.2 378.3 684.5 379 L 686.5 378 L 686.5 380 L 688.5 379 L 688.5 381 L 690.5 380 L 690.5 382 L 693.5 381 L 698 383.5 Q 696.3 384.2 697.5 385 L 700.5 384 L 703 385.5 Q 701.2 386.2 702.5 387 L 705.5 386 L 705.5 388 L 708.5 387 L 708.5 389 L 712.5 388 L 712.5 389 L 711 389.5 L 713.5 390 L 715.5 389 L 715.5 391 L 720.5 390 L 720.5 391 L 719 391.5 L 722.5 392 Q 723 390.5 725.5 391 L 725.5 392 L 724 392.5 L 728.5 393 Q 729.3 391.3 732.5 392 L 732.5 393 L 731 393.5 L 736.5 394 L 738.5 393 Q 741.3 394.3 739 395.5 L 739 417.5 Q 738.8 418.3 741.5 418 Q 742 416.5 744.5 417 L 744.5 418 L 743 418.5 L 747.5 419 Q 748.3 417.2 751.5 418 L 751.5 419 L 750 419.5 L 754.5 420 Q 755 418.5 757.5 419 L 759 421.5 L 758 422.5 L 758 503.5 L 759 505.5 Q 757.8 508.3 756.5 506 L 753 505.5 L 757 505 L 757 421.5 L 756.5 421 L 749.5 421 L 748.5 420 L 743.5 420 Q 742.8 418.3 739.5 419 L 738 417.5 L 738 396.5 Q 738.3 395.8 735.5 396 L 734.5 395 L 727.5 395 L 726.5 394 L 722.5 394 L 721.5 393 L 717.5 393 Q 716.8 391.3 713.5 392 L 712.5 391 Q 710 391.5 709.5 390 L 706.5 390 L 703.5 388 L 698.5 387 L 695.5 385 L 693.5 385 L 670.5 372 L 662.5 365 L 661.5 365 L 650 353.5 L 650.5 353 L 657.5 360 L 659 359.5 L 650.5 351 Q 649.3 353.3 648 350.5 L 647 348.5 L 648 346.5 L 646 346.5 L 647 344.5 L 645 344.5 L 642 337.5 L 643.5 335 Z " /><path fill="rgb(6,5,6)" stroke="rgb(6,5,6)" stroke-width="1" opacity="1" d="M 740.5 396 L 741 396.5 L 741 416.5 L 740 416.5 L 740 396.5 L 740.5 396 Z " /><path fill="rgb(6,5,6)" stroke="rgb(6,5,6)" stroke-width="1" opacity="1" d="M 632.5 446 L 641 456.5 L 641 457.5 L 657.5 474 L 675.5 487 L 698 497.5 L 694.5 499 L 692 497.5 Q 693.7 496.7 692.5 496 L 690.5 497 L 690.5 495 L 687.5 496 L 678 490.5 Q 679.7 489.8 678.5 489 L 676.5 490 L 666.5 484 L 664 481.5 Q 665.8 480.8 664.5 480 L 662.5 481 L 659.5 478 L 658.5 478 L 638 457.5 L 638 456.5 L 635 453.5 Q 636.8 452.8 635.5 452 Q 633.6 451.5 634 452.5 L 634 664.5 L 633 664.5 L 633 452.5 L 635 450.5 L 632 447.5 L 632.5 446 Z " /><path fill="rgb(6,5,6)" stroke="rgb(6,5,6)" stroke-width="1" opacity="1" d="M 448.5 471 L 456.5 471 Q 457 472.5 459.5 472 L 460.5 471 L 466.5 471 L 466.5 473 Q 469 473.5 469.5 472 L 471 474.5 L 470 474.5 L 469.5 473 L 468.5 474 L 444.5 474 L 443.5 475 L 436.5 475 L 435.5 476 L 430.5 476 L 429.5 477 L 425.5 477 L 424.5 478 L 417.5 479 L 416.5 480 L 414.5 480 L 413.5 481 L 405.5 483 L 402.5 485 L 400.5 485 L 382.5 494 L 380.5 496 L 377.5 497 L 371.5 501 L 358.5 512 L 357.5 512 L 344 525.5 L 344 526.5 L 333 539.5 L 329 545.5 L 328 548.5 L 326 550.5 L 318 566.5 L 318 568.5 L 316 571.5 L 315 576.5 L 313 579.5 L 313 582.5 L 311 586.5 L 311 589.5 L 310 590.5 Q 310.8 593.8 309 594.5 L 309 598.5 L 308 599.5 L 308 605.5 L 307 606.5 L 307 614.5 L 306 615.5 L 306 638.5 L 307 639.5 L 307 647.5 L 308 648.5 L 308 654.5 L 309 655.5 L 309 659.5 L 310 660.5 L 311 667.5 L 312 668.5 L 312 670.5 L 313 671.5 L 313 673.5 L 314 674.5 L 316 682.5 L 318 685.5 L 318 687.5 L 326 703.5 L 328 705.5 L 329 708.5 L 333 714.5 L 346 730.5 L 358 748.5 L 376.5 768 L 377.5 768 L 390.5 779 L 396.5 783 L 399.5 784 L 401.5 786 L 419.5 795 L 421.5 795 L 430 798.5 L 426.5 800 L 426.5 798 L 423.5 799 L 423.5 798 L 425 797.5 L 422.5 797 Q 421.7 798.8 421 797.5 Q 422.8 796.7 421.5 796 L 418.5 797 L 416 795.5 Q 417.7 794.8 416.5 794 L 414.5 795 L 414.5 793 L 411.5 794 L 404 789.5 Q 405.7 788.7 404.5 788 L 402.5 789 L 402.5 787 L 400.5 788 L 397 785.5 Q 398.8 784.8 397.5 784 L 395.5 785 L 393.5 782 Q 392.5 784 391.5 782 L 377.5 772 L 359 753.5 L 359 752.5 L 350 741.5 Q 351.7 740.8 350.5 740 L 347 737.5 L 345 733.5 L 335 721.5 L 337 721.5 L 335.5 719 L 334.5 720 L 332 717.5 L 330 714.5 L 331 712.5 Q 330.2 711.2 329.5 713 L 328 711.5 L 329 709.5 Q 328.2 708.2 327.5 710 L 326 708.5 L 325 706.5 L 326 704.5 Q 325.2 703.2 324.5 705 L 323 703.5 L 321 699.5 L 322 697.5 L 320 697.5 L 321 695.5 L 319 695.5 Q 320.5 695 320 692.5 L 319 692.5 L 318.5 694 L 316 688.5 L 317 686.5 L 315 686.5 Q 316.5 686 316 683.5 L 315 683.5 L 314.5 685 L 314 683.5 L 315 681.5 L 313 681.5 L 314 678.5 L 312 678.5 L 313 675.5 L 311 675.5 L 312 672.5 L 310 672.5 L 311 668.5 L 310 668.5 L 309.5 670 L 309 668.5 Q 310.5 668 310 665.5 L 308 665.5 L 309 663.5 L 309 660.5 L 308 660.5 L 307.5 662 L 307 660.5 Q 308.8 659.7 308 656.5 L 306 656.5 L 307 654.5 L 307 650.5 L 306 650.5 L 305.5 652 L 305 648.5 L 306 647.5 L 306 642.5 L 305 642.5 L 304.5 644 L 304 640.5 L 305 639.5 L 305 614.5 Q 303.3 613.8 304 610.5 L 305 610.5 L 305.5 612 L 306 611.5 L 306 605.5 Q 304.5 605 305 602.5 L 306 602.5 L 306.5 604 L 307 599.5 Q 305.5 599 306 596.5 L 307 596.5 L 307.5 598 L 308 594.5 L 307 592.5 L 309 592.5 L 308 588.5 L 310 588.5 L 309 584.5 L 310 584.5 L 310.5 586 L 311 583.5 L 310 581.5 L 312 581.5 L 311 577.5 L 312 577.5 L 312.5 579 L 313 576.5 Q 311.2 575.8 312.5 575 Q 313.3 576.7 314 575.5 L 313 572.5 L 315 572.5 L 314 569.5 L 315 569.5 L 315.5 571 L 316 568.5 Q 314.2 567.7 315.5 567 Q 316.2 568.8 317 567.5 L 316 564.5 L 318.5 560 Q 319.2 561.8 320 560.5 L 319 558.5 L 321 558.5 L 320 556.5 L 322 556.5 L 321 554.5 L 324.5 549 Q 325.2 550.8 326 549.5 L 325 547.5 L 327.5 544 Q 328.3 545.7 329 544.5 L 328 542.5 L 329.5 541 Q 330.2 542.8 331 541.5 L 330 539.5 L 331.5 538 Q 332.2 539.8 333 538.5 L 332 536.5 L 337.5 530 Q 338.8 532.3 340 529.5 L 339.5 528 Q 338.8 529.8 338 528.5 L 343.5 523 L 344.5 524 L 356 512.5 L 354.5 512 L 344.5 522 L 344 521.5 L 354.5 511 L 355.5 511 L 361.5 505 L 372.5 497 L 374.5 498 Q 375.7 497.2 374 496.5 L 375.5 495 L 382.5 491 L 384.5 492 Q 385.7 491.2 384 490.5 L 385.5 489 L 394.5 485 L 396.5 486 L 396.5 484 L 398.5 485 L 398.5 483 L 401.5 482 L 403.5 483 L 403.5 481 L 406.5 480 Q 407 481.5 409.5 481 L 409.5 480 L 408 479.5 L 409.5 479 Q 410 480.5 412.5 480 L 412.5 479 L 411 478.5 L 412.5 478 Q 413 479.5 415.5 479 L 415.5 477 L 418.5 478 L 418.5 476 L 422.5 477 L 422.5 475 L 427.5 476 L 427.5 475 L 426 474.5 L 428.5 474 Q 429.3 475.8 432.5 475 L 432.5 474 L 431 473.5 L 434.5 473 Q 435.5 475 439.5 474 L 439.5 473 L 438 472.5 L 441.5 472 L 442.5 473 L 449.5 473 L 449.5 472 Q 447.1 471.9 448.5 471 Z " /><path fill="rgb(6,5,6)" stroke="rgb(6,5,6)" stroke-width="1" opacity="1" d="M 471.5 497 L 475.5 497 Q 476 498.5 478.5 498 L 479.5 497 L 486.5 497 L 489 498.5 Q 488.3 500.8 484.5 500 L 483.5 499 L 470.5 499 Q 469.7 500.7 469 499.5 Q 468.3 497.3 470.5 498 L 471.5 497 Z " /><path fill="rgb(6,5,6)" stroke="rgb(6,5,6)" stroke-width="1" opacity="1" d="M 489.5 500 L 490 500.5 L 490 574.5 L 489 577 L 468.5 577 L 467.5 576 L 464 575.5 L 468.5 575 L 469.5 576 L 483.5 576 L 487.5 574 Q 488.2 575.8 489 574.5 L 489 500.5 L 489.5 500 Z " /><path fill="rgb(6,5,6)" stroke="rgb(6,5,6)" stroke-width="1" opacity="1" d="M 741.5 506 L 747.5 506 L 748.5 507 L 755.5 507 L 756 507.5 L 755.5 508 L 747.5 508 Q 746.8 506.3 743.5 507 L 742.5 508 L 731.5 508 L 731.5 507 L 740.5 507 L 741.5 506 Z " /><path fill="rgb(6,5,6)" stroke="rgb(6,5,6)" stroke-width="1" opacity="1" d="M 450.5 579 L 454 580.5 L 452.5 581 L 450.5 580 L 450.5 582 L 447.5 583 L 445.5 582 L 445.5 584 L 443.5 583 L 443.5 585 L 441.5 584 Q 440.2 584.7 442 585.5 L 440.5 587 L 437.5 588 L 430.5 593 L 418 605.5 L 415.5 609 Q 414.7 607.2 414 608.5 L 415 610.5 L 413.5 612 Q 412.7 610.3 412 611.5 L 413 613.5 L 408.5 622 L 407 618.5 L 415 605.5 L 425.5 594 L 426.5 594 L 434.5 587 L 450.5 579 Z " /><path fill="rgb(6,5,6)" stroke="rgb(6,5,6)" stroke-width="1" opacity="1" d="M 401.5 648 L 402 648.5 L 402 657.5 L 401 658.5 L 400.5 664 L 400 658.5 L 401 657.5 L 401 648.5 L 401.5 648 Z " /><path fill="rgb(6,5,6)" stroke="rgb(6,5,6)" stroke-width="1" opacity="1" d="M 625.5 696 L 627 699.5 L 625 699.5 Q 624.5 702 626 702.5 L 624 702.5 L 625 705.5 L 623 705.5 L 624 708.5 L 623 708.5 L 622 705.5 L 623 704.5 L 623 702.5 L 624 701.5 L 624 699.5 L 625.5 696 Z " /><path fill="rgb(6,5,6)" stroke="rgb(6,5,6)" stroke-width="1" opacity="1" d="M 619.5 713 L 621 715.5 L 619 715.5 L 620 717.5 L 618 717.5 L 619 719.5 L 617 719.5 L 618 721.5 L 616 721.5 L 617 723.5 L 615 723.5 L 616 725.5 L 614 725.5 L 615 727.5 L 613 727.5 L 614 729.5 L 611.5 733 Q 610.8 731.3 610 732.5 L 611 734.5 L 606 742.5 L 599.5 750 Q 598.7 748.2 598 749.5 L 599 751.5 L 593.5 757 Q 592.8 755.2 592 756.5 L 593 758.5 L 583.5 768 L 582.5 767 L 581 767.5 L 582 768.5 L 576.5 774 L 574.5 773 Q 573.2 773.7 575 774.5 L 571.5 778 L 568.5 780 L 566.5 779 Q 565.2 779.7 567 780.5 L 565.5 782 L 563.5 781 Q 562.2 781.7 564 782.5 L 562.5 784 L 560.5 783 Q 559.2 783.7 561 784.5 L 559.5 786 L 557.5 787 L 555.5 786 Q 554.2 786.7 556 787.5 L 554.5 789 L 550.5 791 L 548.5 790 L 548.5 792 L 546.5 791 L 546.5 793 L 544.5 792 L 544.5 794 L 539.5 796 L 537.5 795 L 537.5 797 L 535 795.5 L 551.5 788 L 553.5 786 L 556.5 785 L 558.5 783 L 561.5 782 L 567.5 778 L 575.5 771 L 576.5 771 L 596 751.5 L 609 733.5 L 619.5 713 Z " /><path fill="rgb(6,5,6)" stroke="rgb(6,5,6)" stroke-width="1" opacity="1" d="M 532.5 796 L 536 797.5 L 534.5 798 L 532.5 797 L 532.5 799 L 529.5 800 Q 529 798.5 526.5 799 L 526.5 800 L 528 800.5 L 526.5 801 Q 526 799.5 523.5 800 L 523.5 801 L 525 801.5 L 522.5 802 L 520 800.5 L 523.5 799 L 525.5 799 L 526.5 798 L 528.5 798 L 529.5 797 L 531.5 797 L 532.5 796 Z " /><path fill="rgb(6,5,6)" stroke="rgb(6,5,6)" stroke-width="1" opacity="1" d="M 434.5 800 Q 437 799.5 437.5 801 L 440.5 801 L 441.5 802 L 444.5 802 L 445.5 803 L 449.5 803 L 450.5 804 L 455 804.5 L 451.5 805 L 450.5 806 L 447.5 806 L 447.5 805 L 450 804.5 L 446.5 804 Q 446 805.5 443.5 805 L 443.5 804 L 445 803.5 L 442.5 803 Q 442 804.5 439.5 804 L 439.5 803 L 441 802.5 L 438.5 802 Q 438 803.5 435.5 803 L 435.5 802 L 437 801.5 L 434.5 801 L 432.5 802 L 432.5 801 L 434.5 800 Z " /><path fill="rgb(6,5,6)" stroke="rgb(6,5,6)" stroke-width="1" opacity="1" d="M 466.5 806 L 490.5 806 L 491.5 807 L 497 807.5 L 496.5 808 L 489.5 808 L 488.5 807 L 467.5 807 L 466.5 808 L 460.5 808 L 460.5 807 L 465.5 807 L 466.5 806 Z " /><path fill="rgb(0,0,0)" stroke="rgb(0,0,0)" stroke-width="1" opacity="0" d="M 0 0 L 1080 0 L 1080 1080 L 0 1080 L 0 0 Z M 538 140 L 537 141 L 512 141 L 511 142 L 501 142 L 500 143 L 492 143 L 491 144 L 484 144 L 483 145 L 478 145 L 477 146 L 471 146 Q 470 148 466 147 L 465 148 L 461 148 L 460 149 L 456 149 Q 455 151 452 150 L 451 151 L 447 151 Q 446 153 443 152 L 442 153 L 439 153 L 435 155 L 432 155 L 428 157 L 425 157 L 418 160 L 416 160 L 415 161 L 413 161 L 412 162 L 410 162 L 409 163 L 407 163 L 406 164 L 404 164 L 401 166 L 396 167 L 388 171 L 386 171 L 381 174 L 379 174 L 368 180 L 366 180 L 358 184 L 356 186 L 340 194 L 338 196 L 335 197 L 333 199 L 330 200 L 325 204 L 322 205 L 316 209 L 313 212 L 298 222 L 289 230 L 288 230 L 276 241 L 275 241 L 260 256 L 259 256 L 230 288 L 230 289 L 222 298 L 212 313 L 209 316 L 205 322 L 204 325 L 200 330 L 199 333 L 197 335 L 196 338 L 194 340 L 186 356 L 184 358 L 181 364 L 181 366 L 171 386 L 171 388 L 167 396 L 166 401 L 164 404 L 162 412 L 161 413 L 161 415 L 160 416 L 160 418 L 159 419 L 159 421 L 158 422 L 158 424 L 157 425 L 157 428 L 155 432 L 155 435 Q 154 435 154 438 L 153 439 L 152 446 L 151 447 L 151 451 Q 149 451 150 455 L 149 456 L 148 465 L 147 466 L 147 471 L 146 472 L 146 477 L 145 478 L 145 483 L 144 484 L 144 491 L 143 492 L 143 500 L 142 501 L 142 511 L 141 512 L 141 537 L 140 538 L 140 543 L 141 544 L 141 569 L 142 570 L 142 580 L 143 581 L 143 589 L 144 590 L 144 597 L 145 598 L 145 603 L 146 604 L 146 609 L 147 610 L 147 615 L 148 616 L 149 625 Q 151 625 150 629 L 151 630 L 151 634 L 152 635 L 152 638 L 153 639 L 153 642 Q 155 642 154 645 L 155 646 L 155 649 L 157 653 L 157 656 L 160 663 L 160 665 L 161 666 L 161 668 L 162 669 L 162 671 L 163 672 L 163 674 L 164 675 L 164 677 L 166 680 L 167 685 L 171 693 L 171 695 L 181 715 L 181 717 L 184 723 L 186 725 L 194 741 L 196 743 L 197 746 L 199 748 L 200 751 L 204 756 L 205 759 L 209 765 L 212 768 L 222 783 L 230 792 L 230 793 L 241 805 L 241 806 L 256 821 L 256 822 L 288 850 L 289 850 L 302 861 L 313 868 L 316 871 L 322 875 L 325 876 L 330 880 L 333 881 L 335 883 L 338 884 L 340 886 L 356 894 L 358 896 L 366 900 L 368 900 L 379 906 L 381 906 L 386 909 L 388 909 L 396 913 L 401 914 L 404 916 L 412 918 L 413 919 L 415 919 L 416 920 L 418 920 L 419 921 L 421 921 L 422 922 L 424 922 L 425 923 L 428 923 L 432 925 L 435 925 Q 435 927 438 926 L 439 927 L 446 928 L 447 929 L 451 929 Q 451 931 455 930 L 456 931 L 465 932 L 466 933 L 470 933 L 471 934 L 477 934 L 478 935 L 483 935 L 484 936 L 491 936 L 492 937 L 500 937 L 501 938 L 511 938 L 512 939 L 537 939 L 538 940 L 543 940 L 544 939 L 569 939 L 570 938 L 580 938 L 581 937 L 589 937 L 590 936 L 597 936 L 598 935 L 603 935 L 604 934 L 610 934 L 611 933 L 620 932 L 621 931 L 625 931 Q 625 929 629 930 L 630 929 L 634 929 L 635 928 L 638 928 L 639 927 L 642 927 Q 642 926 645 926 L 646 925 L 649 925 L 653 923 L 656 923 L 663 920 L 665 920 L 666 919 L 668 919 L 669 918 L 671 918 L 672 917 L 674 917 L 675 916 L 677 916 L 680 914 L 685 913 L 693 909 L 695 909 L 700 906 L 702 906 L 713 900 L 715 900 L 723 896 L 725 894 L 741 886 L 743 884 L 746 883 L 748 881 L 751 880 L 756 876 L 759 875 L 765 871 L 768 868 L 783 858 L 792 850 L 793 850 L 805 839 L 806 839 L 821 824 L 822 824 L 850 793 L 850 792 L 861 779 L 868 768 L 871 765 L 875 759 L 876 756 L 880 751 L 881 748 L 883 746 L 884 743 L 886 741 L 894 725 L 896 723 L 899 717 L 899 715 L 909 695 L 909 693 L 913 685 L 914 680 L 916 677 L 918 669 L 919 668 L 919 666 L 920 665 L 920 663 L 921 662 L 921 660 L 922 659 L 922 657 L 923 656 L 923 653 L 925 649 L 925 646 Q 927 645 926 643 L 927 642 L 928 635 L 929 634 L 929 630 Q 931 629 930 626 L 931 625 L 932 616 L 933 615 L 933 610 L 934 609 L 934 604 L 935 603 L 935 598 L 936 597 L 936 590 L 937 589 L 937 581 L 938 580 L 938 570 L 939 569 L 939 544 L 940 543 L 940 538 L 939 537 L 939 512 L 938 511 L 938 501 L 937 500 L 937 492 L 936 491 L 936 484 L 935 483 L 935 478 L 934 477 L 934 472 L 933 471 L 933 466 L 932 465 L 931 456 Q 929 455 930 452 L 929 451 L 929 447 L 928 446 L 928 443 L 927 442 L 927 439 Q 926 438 926 436 L 925 435 L 925 432 L 923 428 L 923 425 L 920 418 L 920 416 L 919 415 L 919 413 L 918 412 L 918 410 L 917 409 L 917 407 L 916 406 L 916 404 L 914 401 L 913 396 L 909 388 L 909 386 L 899 366 L 899 364 L 896 358 L 894 356 L 886 340 L 884 338 L 883 335 L 881 333 L 880 330 L 876 325 L 875 322 L 871 316 L 868 313 L 858 298 L 850 289 L 850 288 L 839 276 L 839 275 L 824 260 L 824 259 L 793 230 L 792 230 L 783 222 L 768 212 L 765 209 L 759 205 L 756 204 L 751 200 L 748 199 L 746 197 L 743 196 L 741 194 L 725 186 L 723 184 L 715 180 L 713 180 L 702 174 L 700 174 L 695 171 L 693 171 L 685 167 L 680 166 L 677 164 L 669 162 L 668 161 L 666 161 L 665 160 L 663 160 L 662 159 L 660 159 L 659 158 L 657 158 L 656 157 L 653 157 L 649 155 L 646 155 Q 645 154 643 154 L 642 153 L 635 152 L 634 151 L 630 151 Q 629 149 626 150 L 625 149 L 616 148 L 615 147 L 611 147 L 610 146 L 604 146 L 603 145 L 598 145 L 597 144 L 590 144 L 589 143 L 581 143 L 580 142 L 570 142 L 569 141 L 544 141 L 543 140 L 538 140 Z " /><path fill="rgb(0,0,0)" stroke="rgb(0,0,0)" stroke-width="1" opacity="1" d="M 519.5 141 L 560.5 141 L 561 141.5 L 560.5 142 L 519.5 142 L 519.5 141 Z " /><path fill="rgb(0,0,0)" stroke="rgb(0,0,0)" stroke-width="1" opacity="1" d="M 389.5 170 L 391 170.5 L 378.5 176 L 378.5 175 L 384.5 172 L 386.5 172 L 389.5 170 Z " /><path fill="rgb(0,0,0)" stroke="rgb(0,0,0)" stroke-width="1" opacity="1" d="M 689.5 170 L 693.5 172 L 695.5 172 L 702 175.5 L 700.5 176 L 695.5 173 L 693.5 173 L 689.5 171 L 689.5 170 Z " /><path fill="rgb(0,0,0)" stroke="rgb(0,0,0)" stroke-width="1" opacity="1" d="M 375.5 176 L 377 176.5 L 348.5 191 Q 347 190 349.5 189 L 375.5 176 Z " /><path fill="rgb(0,0,0)" stroke="rgb(0,0,0)" stroke-width="1" opacity="1" d="M 703.5 176 L 730.5 189 L 732 190.5 Q 731.3 191.7 730.5 190 L 703.5 177 L 703.5 176 Z " /><path fill="rgb(0,0,0)" stroke="rgb(0,0,0)" stroke-width="1" opacity="1" d="M 346.5 191 Q 348 192 345.5 193 L 340.5 195 L 338.5 197 L 335.5 198 L 326.5 204 Q 325 203 327.5 202 L 346.5 191 Z " /><path fill="rgb(0,0,0)" stroke="rgb(0,0,0)" stroke-width="1" opacity="1" d="M 733.5 191 L 744.5 197 L 746.5 199 L 749.5 200 L 754 203.5 Q 753.2 204.7 752.5 203 L 741.5 197 L 739.5 195 L 734.5 193 Q 732 192 733.5 191 Z " /><path fill="rgb(0,0,0)" stroke="rgb(0,0,0)" stroke-width="1" opacity="1" d="M 305.5 217 L 306 217.5 L 303.5 220 L 302.5 220 L 295.5 226 L 295 225.5 L 298.5 222 L 305.5 217 Z " /><path fill="rgb(0,0,0)" stroke="rgb(0,0,0)" stroke-width="1" opacity="1" d="M 774.5 217 L 785 225.5 L 784.5 226 L 781.5 223 L 776.5 220 L 774 217.5 L 774.5 217 Z " /><path fill="rgb(0,0,0)" stroke="rgb(0,0,0)" stroke-width="1" opacity="1" d="M 288.5 230 L 289 230.5 L 284.5 235 L 283.5 235 L 277.5 241 L 277 240.5 L 283.5 234 L 284.5 234 L 288.5 230 Z " /><path fill="rgb(0,0,0)" stroke="rgb(0,0,0)" stroke-width="1" opacity="1" d="M 791.5 230 L 803 240.5 L 802.5 241 L 796.5 235 L 795.5 235 L 791 230.5 L 791.5 230 Z " /><path fill="rgb(0,0,0)" stroke="rgb(0,0,0)" stroke-width="1" opacity="1" d="M 275.5 241 L 276 241.5 L 264.5 253 L 263.5 253 L 253 263.5 L 253 264.5 L 241.5 276 L 241 275.5 L 251 265.5 L 251 264.5 L 264.5 251 L 265.5 251 L 275.5 241 Z " /><path fill="rgb(0,0,0)" stroke="rgb(0,0,0)" stroke-width="1" opacity="1" d="M 804.5 241 L 829 264.5 L 829 265.5 L 839 275.5 L 838.5 276 L 827 264.5 L 827 263.5 L 816.5 253 L 815.5 253 L 804 241.5 L 804.5 241 Z " /><path fill="rgb(0,0,0)" stroke="rgb(0,0,0)" stroke-width="1" opacity="1" d="M 542.5 273 L 613.5 273 L 616 275.5 L 616 279.5 L 617 280.5 L 617 285.5 Q 619 286.5 618 290.5 L 619 291.5 L 619 294.5 Q 620.5 295 620 297.5 L 621.5 299 L 631.5 299 L 632 299.5 L 631.5 300 L 619 300 L 619 296.5 L 618 295.5 L 618 292.5 L 617 291.5 L 617 288.5 L 616 287.5 L 616 282.5 L 615 281.5 L 615 275.5 L 613.5 274 L 542.5 274 L 542.5 273 Z " /><path fill="rgb(0,0,0)" stroke="rgb(0,0,0)" stroke-width="1" opacity="1" d="M 540.5 275 L 541 275.5 L 541 383.5 L 540 383.5 L 540 275.5 L 540.5 275 Z " /><path fill="rgb(0,0,0)" stroke="rgb(0,0,0)" stroke-width="1" opacity="1" d="M 240.5 277 L 241 277.5 L 235 283.5 L 235 284.5 L 230.5 289 L 230 288.5 L 234 284.5 L 234 283.5 L 240.5 277 Z " /><path fill="rgb(0,0,0)" stroke="rgb(0,0,0)" stroke-width="1" opacity="1" d="M 839.5 277 L 850 288.5 L 849.5 289 L 845 284.5 L 845 283.5 L 839 277.5 L 839.5 277 Z " /><path fill="rgb(0,0,0)" stroke="rgb(0,0,0)" stroke-width="1" opacity="1" d="M 225.5 295 L 226 295.5 L 223 298.5 L 217.5 306 L 217 305.5 L 219 303.5 L 222 298.5 L 225.5 295 Z " /><path fill="rgb(0,0,0)" stroke="rgb(0,0,0)" stroke-width="1" opacity="1" d="M 854.5 295 L 863 305.5 L 862.5 306 L 860 303.5 L 860 302.5 L 854 295.5 L 854.5 295 Z " /><path fill="rgb(0,0,0)" stroke="rgb(0,0,0)" stroke-width="1" opacity="1" d="M 634.5 302 L 635 307.5 L 636 308.5 L 636 313.5 L 637 314.5 L 637 317.5 L 638 318.5 L 638 321.5 L 639 322.5 L 640 327.5 L 639 327.5 L 639 325.5 L 637 321.5 L 637 318.5 L 636 317.5 L 636 314.5 L 635 313.5 L 635 308.5 L 634 307.5 L 634.5 302 Z " /><path fill="rgb(0,0,0)" stroke="rgb(0,0,0)" stroke-width="1" opacity="1" d="M 198.5 334 Q 199.7 334.7 198 335.5 L 197 338.5 L 195 340.5 Q 194.3 344.8 191.5 347 Q 190.2 346.2 192 345.5 L 194 340.5 L 198.5 334 Z " /><path fill="rgb(0,0,0)" stroke="rgb(0,0,0)" stroke-width="1" opacity="1" d="M 881.5 334 L 889 346.5 Q 888 348 887 345.5 L 885 340.5 L 881 334.5 L 881.5 334 Z " /><path fill="rgb(0,0,0)" stroke="rgb(0,0,0)" stroke-width="1" opacity="1" d="M 646.5 344 L 650 350.5 L 663.5 364 L 680 375.5 Q 679.2 376.7 678.5 375 L 668.5 369 L 658.5 360 L 657.5 360 L 650 352.5 L 649 349.5 L 646 345.5 L 646.5 344 Z " /><path fill="rgb(0,0,0)" stroke="rgb(0,0,0)" stroke-width="1" opacity="1" d="M 190.5 348 Q 191.7 348.8 190 349.5 L 176.5 377 L 176 375.5 L 189 349.5 L 190.5 348 Z " /><path fill="rgb(0,0,0)" stroke="rgb(0,0,0)" stroke-width="1" opacity="1" d="M 889.5 348 L 891 349.5 L 904 376.5 L 903 376.5 L 889 348.5 L 889.5 348 Z " /><path fill="rgb(0,0,0)" stroke="rgb(0,0,0)" stroke-width="1" opacity="1" d="M 681.5 376 L 696 383.5 L 694.5 384 L 682.5 378 Q 680 377 681.5 376 Z " /><path fill="rgb(0,0,0)" stroke="rgb(0,0,0)" stroke-width="1" opacity="1" d="M 175.5 378 L 176 379.5 L 170.5 391 L 170 389.5 L 175.5 378 Z " /><path fill="rgb(0,0,0)" stroke="rgb(0,0,0)" stroke-width="1" opacity="1" d="M 904.5 378 L 908 384.5 L 908 386.5 L 910 390.5 L 909 390.5 L 907 386.5 L 907 384.5 L 904 379.5 L 904.5 378 Z " /><path fill="rgb(0,0,0)" stroke="rgb(0,0,0)" stroke-width="1" opacity="1" d="M 738.5 394 L 740 395.5 L 740 417 L 742 417.5 L 739 418 L 739 395.5 Q 737.2 394.7 738.5 394 Z " /><path fill="rgb(0,0,0)" stroke="rgb(0,0,0)" stroke-width="1" opacity="1" d="M 758.5 422 L 759 422.5 L 759 503.5 L 758 503.5 L 758 422.5 L 758.5 422 Z " /><path fill="rgb(0,0,0)" stroke="rgb(0,0,0)" stroke-width="1" opacity="1" d="M 632.5 448 L 635 450.5 L 633 452.5 L 633 668.5 L 632 669.5 L 632 676.5 L 631 677.5 L 630.5 682 L 630 677.5 L 631 676.5 L 631 669.5 L 632 668.5 L 632 448.5 L 632.5 448 Z " /><path fill="rgb(0,0,0)" stroke="rgb(0,0,0)" stroke-width="1" opacity="1" d="M 466.5 472 Q 469.5 471.5 470 473.5 L 471 475.5 L 471 498 Q 468.7 498.8 469 497.5 L 469 473.5 Q 469.3 472.8 466.5 473 L 466.5 472 Z " /><path fill="rgb(0,0,0)" stroke="rgb(0,0,0)" stroke-width="1" opacity="1" d="M 397.5 484 L 399 484.5 L 382.5 493 Q 381 492 383.5 491 L 397.5 484 Z " /><path fill="rgb(0,0,0)" stroke="rgb(0,0,0)" stroke-width="1" opacity="1" d="M 380.5 493 Q 382 494 379.5 495 L 373.5 498 L 370.5 501 L 361.5 507 L 340 528.5 L 329 543.5 L 319.5 561 L 319 559.5 L 332 537.5 L 335 534.5 L 338 529.5 L 344 523.5 L 344 522.5 L 354.5 512 L 355.5 512 L 361.5 506 L 362.5 506 L 373.5 497 L 376.5 496 L 380.5 493 Z " /><path fill="rgb(0,0,0)" stroke="rgb(0,0,0)" stroke-width="1" opacity="1" d="M 488.5 499 L 489 499.5 L 489 574.5 L 488 574.5 L 488 499.5 L 488.5 499 Z " /><path fill="rgb(0,0,0)" stroke="rgb(0,0,0)" stroke-width="1" opacity="1" d="M 539.5 499 L 540 499.5 L 540 635.5 L 539 635.5 L 539 499.5 L 539.5 499 Z " /><path fill="rgb(0,0,0)" stroke="rgb(0,0,0)" stroke-width="1" opacity="1" d="M 702.5 500 L 704.5 500 L 708.5 502 L 711.5 502 L 712.5 503 L 715.5 503 L 716.5 504 L 721 504.5 L 716.5 505 L 715.5 504 L 712.5 504 L 711.5 503 L 708.5 503 L 707.5 502 L 702.5 501 L 702.5 500 Z " /><path fill="rgb(0,0,0)" stroke="rgb(0,0,0)" stroke-width="1" opacity="1" d="M 141.5 519 L 142 519.5 L 142 560.5 L 141 560.5 L 141 519.5 L 141.5 519 Z " /><path fill="rgb(0,0,0)" stroke="rgb(0,0,0)" stroke-width="1" opacity="1" d="M 938.5 519 L 939 519.5 L 939 560.5 L 938 560.5 L 938 519.5 L 938.5 519 Z " /><path fill="rgb(0,0,0)" stroke="rgb(0,0,0)" stroke-width="1" opacity="1" d="M 433.5 589 L 434 589.5 L 431.5 592 L 430.5 592 L 417.5 605 L 417 604.5 L 430.5 591 L 433.5 589 Z " /><path fill="rgb(0,0,0)" stroke="rgb(0,0,0)" stroke-width="1" opacity="1" d="M 304.5 614 L 305 614.5 L 305 639.5 L 304 639.5 L 304 614.5 L 304.5 614 Z " /><path fill="rgb(0,0,0)" stroke="rgb(0,0,0)" stroke-width="1" opacity="1" d="M 410.5 615 Q 411.7 615.7 410 616.5 L 408 620.5 L 408 622.5 L 406 625.5 L 406 627.5 L 404 631.5 L 404 634.5 L 403 635.5 L 403 638.5 L 402 639.5 L 402 647.5 L 401 648.5 L 401 657.5 L 402 658.5 L 402 665.5 L 403 666.5 L 403 670.5 Q 404.5 671 404 673.5 L 403 673.5 Q 403.5 671 402 670.5 L 402 666.5 L 401 665.5 L 401 658.5 L 400 657.5 L 400 647.5 L 401 646.5 L 401 639.5 L 402 638.5 L 403 631.5 L 404 630.5 L 405 625.5 L 407 622.5 L 407 620.5 L 410.5 615 Z " /><path fill="rgb(0,0,0)" stroke="rgb(0,0,0)" stroke-width="1" opacity="1" d="M 535.5 651 L 536 652.5 L 528 668.5 L 521 676.5 L 521 677.5 L 514.5 684 L 501.5 693 Q 500 692 502.5 691 L 509.5 687 L 518 679.5 L 518 678.5 L 524 672.5 L 529 665.5 L 535.5 651 Z " /><path fill="rgb(0,0,0)" stroke="rgb(0,0,0)" stroke-width="1" opacity="1" d="M 404.5 675 L 408 683.5 L 412.5 688 L 421.5 694 L 429 697.5 L 427.5 698 L 416.5 692 L 407 684.5 L 406 680.5 L 404 677.5 L 404.5 675 Z " /><path fill="rgb(0,0,0)" stroke="rgb(0,0,0)" stroke-width="1" opacity="1" d="M 314.5 681 L 316 683.5 L 316 685.5 L 320 692.5 L 320 694.5 L 324 700.5 L 326 705.5 L 328 707.5 L 329 710.5 L 346 732.5 L 345.5 733 L 343 730.5 L 343 729.5 L 335 720.5 L 325 705.5 L 315 685.5 Q 315.5 683 314 682.5 L 314.5 681 Z " /><path fill="rgb(0,0,0)" stroke="rgb(0,0,0)" stroke-width="1" opacity="1" d="M 170.5 689 L 176 701.5 L 175 701.5 L 172 695.5 L 172 693.5 L 170 690.5 L 170.5 689 Z " /><path fill="rgb(0,0,0)" stroke="rgb(0,0,0)" stroke-width="1" opacity="1" d="M 909.5 689 L 910 690.5 L 904.5 702 L 904 700.5 L 909.5 689 Z " /><path fill="rgb(0,0,0)" stroke="rgb(0,0,0)" stroke-width="1" opacity="1" d="M 176.5 703 L 191 731.5 Q 190 733 189 730.5 L 176 704.5 L 176.5 703 Z " /><path fill="rgb(0,0,0)" stroke="rgb(0,0,0)" stroke-width="1" opacity="1" d="M 903.5 703 L 904 704.5 L 891 730.5 L 889.5 732 Q 888.2 731.3 890 730.5 L 903.5 703 Z " /><path fill="rgb(0,0,0)" stroke="rgb(0,0,0)" stroke-width="1" opacity="1" d="M 623.5 705 L 624 706.5 L 621 712.5 L 621 714.5 L 614 728.5 L 612.5 730 Q 611.2 729.2 613 728.5 L 620 714.5 L 620 712.5 L 623.5 705 Z " /><path fill="rgb(0,0,0)" stroke="rgb(0,0,0)" stroke-width="1" opacity="1" d="M 191.5 733 L 199 745.5 Q 198 747 197 744.5 L 191 733.5 L 191.5 733 Z " /><path fill="rgb(0,0,0)" stroke="rgb(0,0,0)" stroke-width="1" opacity="1" d="M 888.5 733 Q 889.7 733.7 888 734.5 L 886 739.5 L 881.5 746 Q 880.2 745.2 882 744.5 L 883 741.5 L 885 739.5 Q 885.7 735.2 888.5 733 Z " /><path fill="rgb(0,0,0)" stroke="rgb(0,0,0)" stroke-width="1" opacity="1" d="M 601.5 746 L 602 746.5 L 599 749.5 L 599 750.5 L 593 756.5 L 593 757.5 L 582.5 768 L 581.5 768 L 571.5 777 L 571 776.5 L 574.5 773 L 575.5 773 L 581.5 767 L 582.5 767 L 592 757.5 L 592 756.5 L 601.5 746 Z " /><path fill="rgb(0,0,0)" stroke="rgb(0,0,0)" stroke-width="1" opacity="1" d="M 360.5 753 L 378 770.5 L 377.5 771 L 360 753.5 L 360.5 753 Z " /><path fill="rgb(0,0,0)" stroke="rgb(0,0,0)" stroke-width="1" opacity="1" d="M 217.5 774 L 226 784.5 L 225.5 785 L 222 781.5 L 217 774.5 L 217.5 774 Z " /><path fill="rgb(0,0,0)" stroke="rgb(0,0,0)" stroke-width="1" opacity="1" d="M 862.5 774 L 863 774.5 L 861 776.5 L 858 781.5 L 854.5 785 L 854 784.5 L 857 781.5 L 862.5 774 Z " /><path fill="rgb(0,0,0)" stroke="rgb(0,0,0)" stroke-width="1" opacity="1" d="M 569.5 777 L 570 777.5 L 567.5 780 L 559.5 785 Q 558 784 560.5 783 L 569.5 777 Z " /><path fill="rgb(0,0,0)" stroke="rgb(0,0,0)" stroke-width="1" opacity="1" d="M 230.5 791 L 241 802.5 L 240.5 803 L 234 796.5 L 234 795.5 L 230 791.5 L 230.5 791 Z " /><path fill="rgb(0,0,0)" stroke="rgb(0,0,0)" stroke-width="1" opacity="1" d="M 849.5 791 L 850 791.5 L 846 795.5 L 846 796.5 L 839.5 803 L 839 802.5 L 845 796.5 L 845 795.5 L 849.5 791 Z " /><path fill="rgb(0,0,0)" stroke="rgb(0,0,0)" stroke-width="1" opacity="1" d="M 241.5 804 L 263.5 827 L 264.5 827 L 276 838.5 L 275.5 839 L 265.5 829 L 264.5 829 L 251 815.5 L 251 814.5 L 241 804.5 L 241.5 804 Z " /><path fill="rgb(0,0,0)" stroke="rgb(0,0,0)" stroke-width="1" opacity="1" d="M 838.5 804 L 839 804.5 L 829 814.5 L 829 815.5 L 815.5 829 L 814.5 829 L 804.5 839 L 804 838.5 L 815.5 827 L 816.5 827 L 827 816.5 L 827 815.5 L 838.5 804 Z " /><path fill="rgb(0,0,0)" stroke="rgb(0,0,0)" stroke-width="1" opacity="1" d="M 467.5 807 L 488.5 807 L 489 807.5 L 488.5 808 L 467.5 808 L 467.5 807 Z " /><path fill="rgb(0,0,0)" stroke="rgb(0,0,0)" stroke-width="1" opacity="1" d="M 277.5 839 L 289 849.5 L 288.5 850 L 284.5 846 L 283.5 846 L 277 839.5 L 277.5 839 Z " /><path fill="rgb(0,0,0)" stroke="rgb(0,0,0)" stroke-width="1" opacity="1" d="M 802.5 839 L 803 839.5 L 796.5 846 L 795.5 846 L 791.5 850 L 791 849.5 L 795.5 845 L 796.5 845 L 802.5 839 Z " /><path fill="rgb(0,0,0)" stroke="rgb(0,0,0)" stroke-width="1" opacity="1" d="M 295.5 854 L 306 862.5 L 305.5 863 L 303.5 861 L 298.5 858 L 295 854.5 L 295.5 854 Z " /><path fill="rgb(0,0,0)" stroke="rgb(0,0,0)" stroke-width="1" opacity="1" d="M 784.5 854 L 785 854.5 L 781.5 858 L 774.5 863 L 774 862.5 L 776.5 860 L 777.5 860 L 784.5 854 Z " /><path fill="rgb(0,0,0)" stroke="rgb(0,0,0)" stroke-width="1" opacity="1" d="M 326.5 876 L 347 888.5 Q 346.2 889.7 345.5 888 L 340.5 886 L 338.5 884 L 330.5 880 L 326 876.5 L 326.5 876 Z " /><path fill="rgb(0,0,0)" stroke="rgb(0,0,0)" stroke-width="1" opacity="1" d="M 753.5 876 Q 755 877 752.5 878 L 733.5 889 Q 732 888 734.5 887 L 739.5 885 L 741.5 883 L 744.5 882 L 753.5 876 Z " /><path fill="rgb(0,0,0)" stroke="rgb(0,0,0)" stroke-width="1" opacity="1" d="M 348.5 889 L 377 903.5 L 375.5 904 L 349.5 891 Q 347 890 348.5 889 Z " /><path fill="rgb(0,0,0)" stroke="rgb(0,0,0)" stroke-width="1" opacity="1" d="M 731.5 889 Q 733 890 730.5 891 L 703.5 904 L 703.5 903 L 731.5 889 Z " /><path fill="rgb(0,0,0)" stroke="rgb(0,0,0)" stroke-width="1" opacity="1" d="M 378.5 904 L 391 909.5 L 389.5 910 L 386.5 908 L 384.5 908 L 378.5 905 L 378.5 904 Z " /><path fill="rgb(0,0,0)" stroke="rgb(0,0,0)" stroke-width="1" opacity="1" d="M 700.5 904 L 702 904.5 L 695.5 908 L 693.5 908 L 689.5 910 L 689.5 909 L 693.5 907 L 695.5 907 L 700.5 904 Z " /><path fill="rgb(0,0,0)" stroke="rgb(0,0,0)" stroke-width="1" opacity="1" d="M 519.5 938 L 560.5 938 L 561 938.5 L 560.5 939 L 519.5 939 L 519.5 938 Z " /><path fill="rgb(220,32,80)" stroke="rgb(220,32,80)" stroke-width="1" opacity="0.996078431372549" d="M 620.5 301 L 633 301 L 633 305.5 L 634 306.5 L 634 311.5 L 635 312.5 L 635 316.5 L 636 317.5 L 636 320.5 Q 637.5 321 637 323.5 Q 636 326 635 324.5 Q 636.5 324 636 321.5 L 634 321.5 L 635 317.5 L 633 317.5 L 634 315.5 L 634 312.5 L 632 312.5 L 633 310.5 L 633 306.5 L 631 306.5 L 632 302 L 620.5 302 L 620.5 301 Z " /><path fill="rgb(220,32,80)" stroke="rgb(220,32,80)" stroke-width="1" opacity="0.996078431372549" d="M 637.5 325 L 639 328.5 L 639 330.5 L 640 331.5 L 640 333.5 L 642 336.5 L 642 338.5 L 648 350.5 L 650 352.5 L 649.5 353 L 647 350.5 L 647 349.5 L 642 344.5 L 644 344.5 L 642 339 Q 639.9 339.5 639 337.5 L 640 334.5 L 638 334.5 L 639 331.5 L 637 331.5 L 638 328.5 L 636 328.5 L 637.5 325 Z " /><path fill="rgb(220,32,80)" stroke="rgb(220,32,80)" stroke-width="1" opacity="0.996078431372549" d="M 738.5 418 L 739.5 419 L 743 419.5 L 739 420 L 739 477.5 L 738.5 478 L 738 477.5 L 738 418.5 L 738.5 418 Z " /><path fill="rgb(220,32,80)" stroke="rgb(220,32,80)" stroke-width="1" opacity="0.996078431372549" d="M 751.5 421 L 756.5 421 L 757 421.5 L 757 505 L 753.5 505 L 752.5 506 L 736.5 506 L 735.5 505 L 726.5 505 L 725.5 504 L 720.5 504 L 719.5 503 L 715.5 503 L 714.5 502 L 711.5 502 L 708 500.5 L 711.5 499 L 711.5 501 L 715.5 500 L 715.5 502 L 718.5 502 L 720.5 501 L 720.5 503 L 724.5 503 L 726.5 502 L 726.5 504 L 732.5 504 Q 733.5 502 737.5 503 L 737.5 504 L 736 504.5 L 736.5 505 L 752.5 505 L 752.5 504 L 751 503.5 L 753.5 503 L 756 504 L 756 422.5 Q 756 421.5 751.5 422 Q 751 423.5 748.5 423 L 748.5 422 Q 751 422.5 751.5 421 Z " /><path fill="rgb(220,32,80)" stroke="rgb(220,32,80)" stroke-width="1" opacity="0.996078431372549" d="M 631.5 444 Q 633.8 443.3 633 445.5 L 635 447.5 L 634.5 448 L 632.5 446 L 632 446.5 L 632 660.5 L 631.5 661 L 631 660.5 L 631 446.5 L 630 445.5 L 631.5 444 Z " /><path fill="rgb(220,32,80)" stroke="rgb(220,32,80)" stroke-width="1" opacity="0.996078431372549" d="M 639.5 451 L 643 455.5 L 642 457.5 L 644.5 460 L 645.5 459 L 656 469.5 L 655 470.5 L 657.5 473 L 659.5 474 L 660.5 473 L 663 475.5 Q 661.3 476.2 662.5 477 L 664.5 478 Q 665.7 475.8 667 478.5 Q 665.2 479.2 666.5 480 L 668.5 479 L 670 480.5 Q 668.3 481.3 669.5 482 L 671.5 481 L 673 482.5 Q 671.3 483.2 672.5 484 L 674.5 483 L 676 484.5 Q 674.2 485.2 675.5 486 L 677.5 485 L 677.5 487 L 679.5 486 L 679.5 488 L 681.5 489 Q 682.3 487.2 683 488.5 L 683.5 490 Q 684.3 488.2 685 489.5 L 685.5 491 Q 686.3 489.3 687 490.5 Q 686.3 492.8 688.5 492 L 690.5 493 Q 691.3 491.2 692 492.5 Q 690.2 493.3 691.5 494 L 693.5 493 L 693.5 495 L 696.5 494 L 696.5 496 L 698.5 495 L 698.5 497 Q 701 497.5 701.5 496 L 701.5 498 Q 704 498.5 704.5 497 L 704.5 499 Q 707 499.5 707.5 498 Q 709 499 706.5 500 L 704.5 500 L 703.5 499 L 698.5 498 L 695.5 496 L 693.5 496 L 675.5 487 L 657.5 474 L 641 457.5 L 641 456.5 L 638 453.5 L 640 453.5 L 639 451.5 L 639.5 451 Z " /><path fill="rgb(220,32,80)" stroke="rgb(220,32,80)" stroke-width="1" opacity="0.996078431372549" d="M 487.5 500 L 488 500.5 L 488 573.5 Q 487.3 575.8 483.5 575 L 482.5 574 L 472.5 574 L 470 572.5 L 474.5 572 L 475.5 573 L 480.5 573 Q 481 571.5 483.5 572 L 483.5 574 Q 487.1 574.4 487 573.5 L 487 500.5 L 487.5 500 Z " /><path fill="rgb(220,32,80)" stroke="rgb(220,32,80)" stroke-width="1" opacity="0.996078431372549" d="M 480.5 501 Q 485 500 486 502.5 L 486 572.5 L 485.5 573 L 485 572.5 L 485 502 L 480.5 502 L 480.5 501 Z " /><path fill="rgb(220,32,80)" stroke="rgb(220,32,80)" stroke-width="1" opacity="0.996078431372549" d="M 463.5 573 L 465.5 574 L 471 574.5 L 470.5 575 L 464.5 575 L 463.5 576 L 459.5 576 L 458.5 577 L 456.5 577 L 455.5 578 L 447.5 580 L 434.5 587 L 420 599.5 L 420 600.5 L 415 605.5 L 408.5 616 Q 406 615 407.5 614 Q 408.3 615.8 409 614.5 L 408 612.5 L 410 612.5 L 409 610.5 L 410.5 609 Q 411.2 610.8 412 609.5 L 411 607.5 L 412.5 606 Q 413.2 607.7 414 606.5 L 415 604.5 Q 412.7 603.2 415.5 602 Q 416.8 604.3 418 601.5 L 419 599.5 L 418 598.5 L 424.5 592 Q 425.5 594 426.5 592 L 429 590.5 Q 426.7 589.3 429.5 588 Q 430.5 590 431.5 588 L 433 587.5 Q 431.3 586.8 432.5 586 Q 433.5 588 434.5 586 L 436 585.5 Q 434.2 584.8 435.5 584 L 437.5 585 Q 438.7 584.2 437 583.5 L 438.5 582 L 440.5 583 L 440.5 581 L 442.5 582 L 442.5 580 L 444.5 581 L 444.5 579 L 447 580 L 447.5 578 L 449.5 579 L 449.5 577 Q 450 578.5 452.5 578 L 452.5 576 Q 453 577.5 455.5 577 L 455.5 575 Q 456 576.5 458.5 576 L 458.5 574 L 460.5 575 L 463.5 575 L 463.5 573 Z " /><path fill="rgb(220,32,80)" stroke="rgb(220,32,80)" stroke-width="1" opacity="0.996078431372549" d="M 405.5 618 L 407 620.5 L 403.5 628 L 402 625.5 L 404 625.5 Q 404.5 623 403 622.5 L 405 622.5 L 404 620.5 L 406 620.5 L 405 618.5 L 405.5 618 Z " /><path fill="rgb(220,32,80)" stroke="rgb(220,32,80)" stroke-width="1" opacity="0.996078431372549" d="M 401.5 628 Q 403.5 628.5 403 631.5 L 402 632.5 L 402 635.5 L 401 636.5 L 400.5 641 L 399 635.5 L 401 635.5 L 400 631.5 L 402 631.5 Q 402.5 629 401 628.5 L 401.5 628 Z " /><path fill="rgb(220,32,80)" stroke="rgb(220,32,80)" stroke-width="1" opacity="0.996078431372549" d="M 398.5 641 L 400 642.5 L 400 663.5 L 401 664.5 L 401 669.5 L 402 670.5 L 402 673.5 L 403 674.5 L 404 679.5 L 407 684.5 L 406.5 685 L 404 682.5 L 403 677 Q 400.9 677.5 400 675.5 L 401 670 L 399 669.5 Q 401 668.5 400 664.5 L 398 664.5 L 399 662.5 L 399 643.5 Q 397.3 642.8 398.5 641 Z " /><path fill="rgb(220,32,80)" stroke="rgb(220,32,80)" stroke-width="1" opacity="0.996078431372549" d="M 629.5 657 L 630 661.5 L 631 662.5 L 631 671.5 L 630 672.5 L 630 678.5 L 629 679.5 L 629 683.5 L 628 684.5 L 627.5 688 L 626 683.5 L 628 683.5 L 628 680.5 L 627 678.5 L 629 678.5 L 629 674.5 Q 627.5 674 628 671.5 L 630 671.5 L 630 664.5 L 629 663.5 L 629 657.5 L 629.5 657 Z " /><path fill="rgb(220,32,80)" stroke="rgb(220,32,80)" stroke-width="1" opacity="0.996078431372549" d="M 625.5 688 Q 627.5 688.5 627 691.5 L 626 692.5 L 626 695.5 L 625 696.5 L 625 698.5 L 624 699.5 L 622 707.5 L 620 710.5 L 620 712.5 L 609 733.5 L 596 751.5 L 576.5 771 L 575.5 771 L 567.5 778 L 561.5 782 L 558.5 783 L 556.5 785 L 553.5 786 L 551.5 788 L 541.5 793 L 539.5 793 L 534.5 796 L 532.5 796 L 531.5 797 L 529.5 797 L 528.5 798 L 526.5 798 L 519.5 801 L 516.5 801 L 515.5 802 Q 512.3 801.3 511.5 803 L 507.5 803 L 506.5 804 L 501.5 804 L 500.5 805 L 493.5 805 L 492.5 806 L 464.5 806 L 464.5 805 L 492.5 805 L 493 804.5 Q 491.2 803.8 492.5 803 Q 495 802.5 495.5 804 L 500.5 804 L 500.5 802 L 502.5 803 L 506.5 803 L 506.5 801 L 508.5 802 L 511.5 802 L 511.5 800 L 515.5 801 L 515.5 799 L 519.5 800 L 519.5 798 Q 520 799.5 522.5 799 L 522.5 797 L 525.5 798 L 525.5 796 L 528.5 797 L 528.5 795 L 531.5 796 L 531.5 794 Q 532 795.5 534.5 795 L 534.5 793 L 536.5 794 L 536.5 792 L 539 793 L 539.5 791 L 541.5 792 L 541.5 790 L 543.5 791 L 543.5 789 L 545.5 790 L 545.5 788 L 547.5 789 L 547.5 787 L 549.5 788 L 549.5 786 L 551.5 787 L 551.5 785 Q 552.5 787 553.5 785 L 555 784.5 Q 553.3 783.7 554.5 783 L 556.5 784 L 556.5 782 Q 557.5 784 558.5 782 L 560 781.5 Q 558.2 780.8 559.5 780 L 561.5 781 Q 562.7 780.2 561 779.5 L 562.5 778 L 564.5 779 Q 565.7 778.2 564 777.5 L 565.5 776 Q 566.5 778 567.5 776 L 569 775.5 Q 566.8 774.3 569.5 773 Q 570.5 775 571.5 773 L 573 772.5 L 572 771.5 L 574.5 769 Q 575.5 771 576.5 769 L 579 767.5 L 578 766.5 L 591.5 753 L 592.5 754 L 595 751.5 L 596 749.5 Q 593.8 748.3 596.5 747 Q 597.8 749.3 599 746.5 L 598 744.5 L 600.5 742 Q 601.3 743.7 602 742.5 L 601 740.5 L 602.5 739 Q 603.2 740.8 604 739.5 L 605 737.5 Q 603.3 736.8 604.5 736 Q 605.3 737.8 606 736.5 L 607 734.5 Q 605.3 733.7 606.5 733 Q 607.2 734.7 608 733.5 L 607 731.5 L 609 731.5 L 610 729.5 Q 608.3 728.8 609.5 728 Q 610.3 729.7 611 728.5 L 610 726.5 L 612 726.5 L 611 724.5 L 613 724.5 L 612 722.5 L 614 722.5 L 615 719.5 Q 613.2 718.8 614.5 718 Q 615.3 719.8 616 718.5 L 615 716.5 L 617 716.5 L 616 714.5 L 618 714.5 L 617 712.5 L 619 712.5 L 618 710.5 L 620 710 L 619 707.5 L 621 707.5 L 620 704.5 L 622 704.5 L 621 702.5 L 623 702 L 622 698.5 L 624 698.5 L 623 695.5 L 625 695.5 Q 625.5 693 624 692.5 L 626 692 Q 626.8 689.4 625 688.5 L 625.5 688 Z " /><path fill="rgb(220,32,80)" stroke="rgb(220,32,80)" stroke-width="1" opacity="0.996078431372549" d="M 346.5 731 L 355 739.5 L 354.5 740 Q 353.8 738.3 353 739.5 L 355 742.5 L 354.5 743 L 352 740.5 L 346 731.5 L 346.5 731 Z " /><path fill="rgb(220,32,80)" stroke="rgb(220,32,80)" stroke-width="1" opacity="0.996078431372549" d="M 355.5 744 L 357.5 746 L 358.5 745 L 361 747.5 L 359 747.5 L 360.5 750 L 361.5 749 L 365 752.5 L 364 754.5 L 376.5 767 L 377.5 767 L 378.5 766 L 382 769.5 Q 379.8 770.8 382.5 772 L 384.5 771 L 387 773.5 Q 385.3 774.3 386.5 775 L 388.5 776 Q 389.3 774.3 390 775.5 Q 387.7 776.8 390.5 778 L 392.5 777 L 394 778.5 Q 392.2 779.3 393.5 780 L 395.5 779 L 397 780.5 Q 395.3 781.3 396.5 782 L 398.5 781 L 398.5 783 L 400.5 784 Q 401.3 782.2 402 783.5 Q 400.2 784.2 401.5 785 L 403.5 784 L 403.5 786 L 405.5 785 L 405.5 787 L 407.5 786 L 407.5 788 L 409.5 789 Q 410.3 787.3 411 788.5 Q 410.3 790.8 412.5 790 L 414.5 791 Q 415.2 789.2 416 790.5 Q 414.3 791.2 415.5 792 L 417.5 791 L 417.5 793 L 419.5 792 L 419.5 794 Q 422 794.5 422.5 793 L 422.5 795 L 424.5 794 Q 426 795 423.5 796 L 419.5 795 L 401.5 786 L 399.5 784 L 396.5 783 L 390.5 779 L 377.5 768 L 376.5 768 L 363 754.5 L 363 753.5 L 355 744.5 L 355.5 744 Z " /><path fill="rgb(220,32,80)" stroke="rgb(220,32,80)" stroke-width="1" opacity="0.996078431372549" d="M 427.5 795 L 427.5 797 Q 430 797.5 430.5 796 L 430.5 798 Q 433 798.5 433.5 797 L 433.5 799 L 437.5 798 L 437.5 800 Q 440 800.5 440.5 799 Q 442 800 439.5 801 Q 437 801.5 436.5 800 L 433.5 800 L 425 796.5 L 427.5 795 Z " /><path fill="rgb(220,32,80)" stroke="rgb(220,32,80)" stroke-width="1" opacity="0.996078431372549" d="M 454.5 802 L 456 802.5 Q 454.2 803.3 455.5 804 L 461.5 804 Q 462 802.5 464.5 803 L 464.5 804 Q 461.7 806.2 455.5 805 L 454.5 804 L 450 803.5 L 453.5 803 L 454.5 802 Z " /><path fill="rgb(212,238,240)" stroke="rgb(212,238,240)" stroke-width="1" opacity="0.996078431372549" d="M 542 275 L 613.5 275 Q 614.5 275 614 279.5 L 615 280.5 L 615 286.5 L 616 287.5 L 616 290.5 L 617 291.5 L 618 298.5 L 620 301.5 L 620 303.5 L 621 304.5 L 622 309.5 L 624 312.5 L 624 314.5 L 630 326.5 L 642 344.5 L 662.5 366 L 681.5 379 L 693.5 385 L 695.5 385 L 698.5 387 L 700.5 387 L 703.5 389 L 705.5 389 L 709.5 391 L 712.5 391 L 713.5 392 L 716.5 392 L 717.5 393 L 720.5 393 L 721.5 394 L 726.5 394 L 727.5 395 L 734.5 395 Q 735.4 396.8 738 396 L 738 479.5 L 737.5 480 L 712.5 480 L 711.5 479 L 704.5 479 L 703.5 478 L 694.5 477 L 693.5 476 Q 691 476.5 690.5 475 L 687.5 475 L 686.5 474 L 678.5 472 L 675.5 470 L 673.5 470 L 657.5 462 L 645.5 454 L 627 437.5 L 627 436.5 L 621 430.5 L 613.5 420 L 613 420.5 L 613 639.5 L 612 640.5 L 612 648.5 L 611 649.5 L 611 654.5 L 610 655.5 L 610 659.5 L 609 660.5 L 608 667.5 L 607 668.5 L 607 670.5 L 606 671.5 L 606 673.5 L 605 674.5 L 603 682.5 L 593 703.5 L 591 705.5 L 590 708.5 L 584 717.5 L 580 721.5 L 576 727.5 L 560.5 743 L 559.5 743 L 546.5 754 L 535.5 760 L 533.5 762 L 521.5 768 L 519.5 768 L 516.5 770 L 514.5 770 L 511.5 772 L 509.5 772 L 502.5 775 L 499.5 775 L 498.5 776 L 491.5 777 L 490.5 778 L 485.5 778 L 484.5 779 L 479.5 779 L 478.5 780 L 467.5 780 L 466.5 781 L 452.5 781 L 451.5 780 L 440.5 780 L 439.5 779 L 428.5 778 L 427.5 777 L 424.5 777 L 423.5 776 L 416.5 775 L 415.5 774 L 413.5 774 L 412.5 773 L 404.5 771 L 401.5 769 L 399.5 769 L 383.5 761 L 381.5 759 L 378.5 758 L 369.5 752 L 361.5 745 L 360.5 745 L 344 728.5 L 344 727.5 L 336 718.5 L 328 706.5 L 327 703.5 L 325 701.5 L 319 689.5 L 319 687.5 L 317 684.5 L 317 682.5 L 315 679.5 L 315 677.5 L 312 670.5 L 312 667.5 L 311 666.5 L 311 663.5 L 310 662.5 Q 310.8 659.3 309 658.5 L 309 654.5 L 308 653.5 L 308 648.5 L 307 647.5 L 307 638.5 L 306 637.5 L 306 616.5 L 307 615.5 L 307 606.5 L 308 605.5 L 308 600.5 Q 310 599.5 309 595.5 L 310 594.5 L 310 591.5 L 311 590.5 L 312 583.5 L 313 582.5 L 315 574.5 L 317 571.5 L 317 569.5 L 319 566.5 L 319 564.5 L 325 552.5 L 327 550.5 L 328 547.5 L 336 535.5 L 346 524.5 L 346 523.5 L 355.5 514 L 356.5 514 L 363.5 507 L 377.5 497 L 398.5 486 L 400.5 486 L 408.5 482 L 410.5 482 L 414.5 480 L 417.5 480 L 418.5 479 L 421.5 479 L 422.5 478 L 425.5 478 L 426.5 477 L 429.5 477 L 430.5 476 L 435.5 476 L 436.5 475 L 443.5 475 L 444.5 474 L 469 474 L 469 548.5 L 468.5 549 L 448.5 549 L 447.5 550 L 442.5 550 L 441.5 551 L 438.5 551 L 437.5 552 L 432.5 553 L 419.5 559 L 409.5 566 L 399 576.5 L 390 589.5 L 388 593.5 L 388 595.5 L 386 598.5 L 384 606.5 L 383 607.5 Q 384 611.5 382 612.5 L 382 617.5 L 381 618.5 L 381 635.5 L 382 636.5 L 382 641.5 Q 384 642.5 383 646.5 L 384 647.5 L 386 655.5 L 389 660.5 L 389 662.5 L 399 677.5 L 411.5 690 L 420.5 696 L 428.5 700 L 430.5 700 L 431.5 701 L 433.5 701 L 440.5 704 Q 444.5 703 445.5 705 L 452.5 705 L 453.5 706 L 465.5 706 L 466.5 705 L 473.5 705 Q 474.5 703 478.5 704 L 479.5 703 L 482.5 703 L 483.5 702 L 488.5 701 L 491.5 699 L 493.5 699 L 507.5 691 L 520 680.5 L 520 679.5 L 526 673.5 L 532 664.5 L 536 656.5 L 536 654.5 L 539 647.5 L 539 644.5 L 540 643.5 L 540 639.5 L 541 638.5 L 541 501.5 L 542 500.5 L 542 275 Z " /><path fill="rgb(243,26,81)" stroke="rgb(243,26,81)" stroke-width="1" opacity="0.996078431372549" d="M 620.5 302 L 631.5 302 Q 632.3 301.8 632 304.5 L 631 306.5 L 633 306.5 L 633 310.5 L 632 312.5 L 634 312.5 L 634 315.5 L 633 317.5 L 635 317.5 L 634 321.5 L 636 321.5 L 637 326.5 L 636 328.5 L 638 328.5 L 637 331.5 L 639 331.5 L 638 334.5 L 640 334.5 L 641 337.5 Q 639.3 338.3 640.5 339 Q 642.8 338.3 642 340.5 L 645 345.5 L 644.5 346 L 641 342.5 L 632 329.5 L 626 316.5 L 624 314.5 L 624 311.5 L 622 309.5 L 622 306.5 L 620 302.5 L 620.5 302 Z " /><path fill="rgb(243,26,81)" stroke="rgb(243,26,81)" stroke-width="1" opacity="0.996078431372549" d="M 613.5 420 Q 615.3 424.7 619 427.5 L 619 429 Q 621.7 427.9 621 430.5 L 625.5 436 Q 627.8 435.3 627 437.5 L 637.5 448 L 638.5 448 L 646.5 455 L 652.5 458 L 655.5 461 L 672.5 470 L 675.5 470 L 677.5 472 Q 680 471.5 680.5 473 L 683.5 473 L 689.5 476 Q 690.5 474 691.5 476 L 693.5 477 L 696.5 477 L 697.5 478 Q 698.5 476 699.5 478 Q 702.8 477.3 703.5 479 L 708.5 479 L 710.5 480 Q 711.5 478 712.5 480 L 722.5 480 L 723.5 481 L 728.5 481 L 729.5 480 L 738 480 L 739 477.5 L 739 420 L 756 422 L 756 503.5 Q 756.4 504.5 754.5 504 Q 754 502.5 751.5 503 L 751.5 504 L 753 504.5 L 752.5 505 L 736.5 505 L 736.5 504 L 738 503.5 L 733.5 503 L 732.5 504 L 726.5 504 L 726.5 502 L 724.5 503 L 720.5 503 L 720.5 501 L 718.5 502 L 715.5 502 L 715.5 500 L 711.5 501 L 711.5 499 L 707.5 500 L 706.5 499 L 704.5 499 L 696 495.5 Q 697.7 494.8 696.5 494 L 693.5 495 L 688.5 492 L 687 492 L 686.5 490 Q 685.8 491.7 685 490.5 L 684.5 489 Q 683.8 490.7 683 489.5 L 682.5 488 Q 681.5 490 680.5 488 L 675.5 486 L 662.5 477 L 642 457.5 L 642 456.5 L 633 445.5 L 633 444 Q 630.9 443.5 630 445.5 L 631 446.5 L 631 661.5 L 630 661.5 L 629.5 657 L 629 657.5 L 629 663.5 L 630 664.5 L 630 671.5 L 628 671.5 Q 627.5 674 629 674.5 L 629 678.5 L 627 678.5 L 628 680.5 L 628 683.5 L 626 683.5 L 627 685.5 L 627 688.5 Q 625.3 689.4 626 692 L 624 692.5 Q 625.5 693 625 695.5 L 623 695.5 L 624 698.5 L 622 698.5 L 623 702 L 621 702.5 L 622 704.5 L 620 704.5 L 621 707.5 L 620 710 L 618 710.5 L 619 712.5 L 611 728.5 L 609 730.5 L 608 733.5 L 602 742.5 L 595 750.5 L 595 751.5 L 577.5 769 L 576.5 769 L 572.5 773 L 561.5 781 L 558.5 782 L 551.5 787 L 540.5 792 Q 539.8 790.3 539 791.5 Q 539.8 793.8 537.5 793 L 534.5 795 L 530.5 796 L 528.5 795 L 528.5 797 L 525.5 796 L 525.5 798 L 522.5 797 L 522.5 799 L 517.5 800 L 515.5 799 L 515.5 801 L 511.5 800 L 511.5 802 L 508.5 802 L 506.5 801 L 506.5 803 L 502.5 803 L 500.5 802 L 500.5 804 L 495.5 804 Q 495 802.5 492.5 803 L 492.5 805 L 463.5 805 L 463 804.5 L 465 803.5 L 462.5 803 L 461.5 804 L 455.5 804 L 455.5 802 L 453.5 803 L 449.5 803 L 448.5 802 L 444.5 802 L 443.5 801 L 440.5 801 L 437 799.5 Q 438.7 798.8 437.5 798 L 433.5 799 L 432.5 798 L 424.5 796 L 421.5 794 L 419.5 794 L 412.5 790 L 411 790 L 410.5 788 Q 409.5 790 408.5 788 L 396.5 782 L 382.5 772 L 364 754.5 L 364 753.5 L 359 748.5 L 351 737.5 L 351.5 737 L 354.5 740 L 355.5 740 L 362.5 747 L 363.5 747 L 370.5 753 L 379.5 759 L 381.5 759 L 386.5 763 L 396.5 768 L 398.5 768 L 401.5 770 L 403.5 770 L 406.5 772 L 408.5 772 L 415.5 775 L 419.5 775 Q 420.3 776.8 423.5 776 L 427.5 778 L 431.5 778 L 432.5 779 Q 433.5 777 434.5 779 Q 437.8 778.2 438.5 780 L 446.5 780 Q 447.3 781.7 450.5 781 Q 451.5 779 452.5 781 L 470.5 781 L 471.5 780 L 480.5 780 L 481.5 779 Q 484.8 779.8 485.5 778 Q 486.5 780 487.5 778 L 491.5 778 L 495.5 776 L 499.5 776 Q 500.3 774.3 503.5 775 L 504.5 774 L 512.5 772 L 514.5 770 L 517.5 770 L 519.5 768 L 524.5 767 L 530.5 764 L 535.5 760 L 537.5 760 L 540.5 757 L 542.5 757 L 559 744.5 Q 558.3 742.3 560.5 743 L 569 735.5 L 569 734.5 L 576 727.5 L 576 726 Q 578.7 727.1 578 724.5 Q 580.5 723.5 580 721 Q 582.7 722.1 582 719.5 L 585 716.5 L 591 707.5 L 592 704.5 L 594 702.5 L 601 688.5 L 601 685.5 L 603 683.5 Q 602.5 681 604 680.5 L 604 677.5 L 606 675.5 Q 604 674.5 606 673.5 L 606 671.5 L 608 668.5 L 609 661.5 L 610 660.5 L 610 656.5 L 611 655.5 Q 610 651.5 612 650.5 L 612 643.5 L 613 642.5 L 613 420.5 L 613.5 420 Z " /><path fill="rgb(243,26,81)" stroke="rgb(243,26,81)" stroke-width="1" opacity="0.996078431372549" d="M 469 500 L 486.5 500 L 487 500.5 L 487 574 L 483 573.5 Q 484.8 572.7 483.5 572 Q 481 571.5 480.5 573 L 475.5 573 Q 474.5 571 470.5 572 L 470.5 573 L 472 573.5 L 471.5 574 L 465.5 574 L 463.5 573 L 463.5 575 L 460.5 575 L 458.5 574 L 458.5 576 L 456.5 576 L 455.5 577 L 453.5 577 L 452.5 578 L 448.5 579 Q 447.7 577.2 447 578.5 Q 447.8 580.8 445.5 580 L 431.5 588 L 418 600.5 L 410 611.5 L 404 623.5 L 404 625.5 L 403 626.5 L 403 628.5 L 401.5 632 Q 400.8 630.3 400 631.5 L 401 635.5 L 399 635.5 L 400 637.5 L 400 641.5 L 398 641.5 L 399 643.5 L 399 662.5 L 398 664.5 L 400 664.5 Q 401 668.5 399 669.5 L 401 670 L 400 675.5 L 401 675.5 L 401.5 674 L 402 675.5 Q 400.2 676.2 401.5 677 Q 404.1 676.2 403 679.5 L 404 681.5 Q 403 683 402 680.5 L 389 662.5 L 389 660.5 L 387 657.5 L 385 649.5 L 383 646.5 L 383 641.5 L 382 640.5 L 382 633.5 L 381 632.5 L 381 621.5 L 382 620.5 L 382 613.5 Q 384 612.5 383 608.5 L 384 607.5 L 384 605.5 L 385 604.5 L 385 602.5 L 386 601.5 L 388 593.5 L 390 589.5 L 393 586.5 L 393 584 Q 395.7 585.1 395 582.5 L 405.5 570 L 409 567.5 Q 408.3 565.3 410.5 566 L 419.5 559 L 421.5 559 L 430.5 554 L 435.5 553 L 438.5 551 Q 439.5 553 440.5 551 L 442.5 550 Q 443.5 552 444.5 550 L 449.5 550 L 450.5 549 L 465.5 549 L 466.5 550 L 467.5 549 Q 468.2 550.8 469 549.5 L 469 500 Z M 486 502 L 485 503 L 485 573 L 486 573 L 486 503 L 486 502 Z " /></svg>